# Blender 4.3.2
# www.blender.org
mtllib Sign.mtl
o Untitled.014
v 0.125000 0.500000 0.562500
v 0.125000 0.500000 0.437500
v 0.125000 1.000000 0.562500
v 0.125000 1.000000 0.437500
v 0.375000 0.000000 0.562500
v 0.375000 0.000000 0.437500
v 0.375000 0.250000 0.562500
v 0.375000 0.250000 0.437500
v 0.500000 0.250000 0.562500
v 0.500000 0.250000 0.437500
v 0.500000 0.500000 0.562500
v 0.500000 0.500000 0.437500
v 0.500000 0.000000 0.562500
v 0.500000 0.000000 0.437500
v 0.500000 0.125000 0.562500
v 0.500000 0.125000 0.437500
v 0.625000 0.125000 0.562500
v 0.625000 0.125000 0.437500
v 0.625000 0.500000 0.562500
v 0.625000 0.500000 0.437500
v 0.875000 0.500000 0.562500
v 0.875000 0.500000 0.437500
v 0.875000 1.000000 0.562500
v 0.875000 1.000000 0.437500
v 0.125000 0.500000 0.562500
v 0.125000 1.000000 0.562500
v 0.250000 0.750000 0.562500
v 0.250000 0.875000 0.562500
v 0.375000 0.000000 0.562500
v 0.375000 0.250000 0.562500
v 0.500000 0.000000 0.562500
v 0.500000 0.125000 0.562500
v 0.500000 0.250000 0.562500
v 0.500000 0.500000 0.562500
v 0.500000 0.750000 0.562500
v 0.500000 0.875000 0.562500
v 0.625000 0.125000 0.562500
v 0.625000 0.500000 0.562500
v 0.625000 0.750000 0.562500
v 0.625000 0.875000 0.562500
v 0.750000 0.750000 0.562500
v 0.750000 0.875000 0.562500
v 0.875000 0.500000 0.562500
v 0.875000 1.000000 0.562500
v 0.125000 0.500000 0.437500
v 0.125000 1.000000 0.437500
v 0.250000 0.750000 0.437500
v 0.250000 0.875000 0.437500
v 0.375000 0.000000 0.437500
v 0.375000 0.250000 0.437500
v 0.500000 0.000000 0.437500
v 0.500000 0.125000 0.437500
v 0.500000 0.250000 0.437500
v 0.500000 0.500000 0.437500
v 0.500000 0.750000 0.437500
v 0.500000 0.875000 0.437500
v 0.625000 0.125000 0.437500
v 0.625000 0.500000 0.437500
v 0.625000 0.750000 0.437500
v 0.625000 0.875000 0.437500
v 0.750000 0.750000 0.437500
v 0.750000 0.875000 0.437500
v 0.875000 0.500000 0.437500
v 0.875000 1.000000 0.437500
v 0.375000 0.000000 0.562500
v 0.500000 0.000000 0.562500
v 0.375000 0.000000 0.437500
v 0.500000 0.000000 0.437500
v 0.500000 0.125000 0.562500
v 0.625000 0.125000 0.562500
v 0.500000 0.125000 0.437500
v 0.625000 0.125000 0.437500
v 0.125000 0.500000 0.562500
v 0.500000 0.500000 0.562500
v 0.625000 0.500000 0.562500
v 0.875000 0.500000 0.562500
v 0.125000 0.500000 0.437500
v 0.500000 0.500000 0.437500
v 0.625000 0.500000 0.437500
v 0.875000 0.500000 0.437500
v 0.375000 0.250000 0.562500
v 0.500000 0.250000 0.562500
v 0.375000 0.250000 0.437500
v 0.500000 0.250000 0.437500
v 0.125000 1.000000 0.562500
v 0.875000 1.000000 0.562500
v 0.125000 1.000000 0.437500
v 0.875000 1.000000 0.437500
vn -1.0000 -0.0000 -0.0000
vn 1.0000 -0.0000 -0.0000
vn -0.0000 -0.0000 1.0000
vn -0.0000 -0.0000 -1.0000
vn -0.0000 -1.0000 -0.0000
vn -0.0000 1.0000 -0.0000
vt 0.376953 0.500000
vt 0.380859 0.500000
s 1
usemtl palette.014
f 3/1/1 2/1/1 1/1/1
f 4/1/1 2/1/1 3/1/1
f 7/1/1 6/1/1 5/1/1
f 8/1/1 6/1/1 7/1/1
f 11/1/1 10/1/1 9/1/1
f 12/1/1 10/1/1 11/1/1
f 13/1/2 14/1/2 15/1/2
f 15/1/2 14/1/2 16/1/2
f 17/1/2 18/1/2 19/1/2
f 19/1/2 18/1/2 20/1/2
f 21/1/2 22/1/2 23/1/2
f 23/1/2 22/1/2 24/1/2
f 27/1/3 26/1/3 25/1/3
f 28/1/3 26/1/3 27/1/3
f 31/1/3 30/1/3 29/1/3
f 32/1/3 30/1/3 31/1/3
f 33/1/3 30/1/3 32/1/3
f 34/1/3 27/1/3 25/1/3
f 35/2/3 28/2/3 27/2/3
f 35/1/3 27/1/3 34/1/3
f 36/1/3 26/1/3 28/1/3
f 36/2/3 28/2/3 35/2/3
f 37/1/3 33/1/3 32/1/3
f 37/1/3 34/1/3 33/1/3
f 37/1/3 36/1/3 35/1/3
f 37/1/3 35/1/3 34/1/3
f 38/1/3 36/1/3 37/1/3
f 39/1/3 36/1/3 38/1/3
f 40/1/3 26/1/3 36/1/3
f 40/1/3 36/1/3 39/1/3
f 41/1/3 39/1/3 38/1/3
f 41/2/3 40/2/3 39/2/3
f 42/1/3 26/1/3 40/1/3
f 42/2/3 40/2/3 41/2/3
f 43/1/3 41/1/3 38/1/3
f 43/1/3 42/1/3 41/1/3
f 44/1/3 26/1/3 42/1/3
f 44/1/3 42/1/3 43/1/3
f 45/1/4 46/1/4 47/1/4
f 47/1/4 46/1/4 48/1/4
f 49/1/4 50/1/4 51/1/4
f 51/1/4 50/1/4 52/1/4
f 52/1/4 50/1/4 53/1/4
f 45/1/4 47/1/4 54/1/4
f 47/2/4 48/2/4 55/2/4
f 54/1/4 47/1/4 55/1/4
f 48/1/4 46/1/4 56/1/4
f 55/2/4 48/2/4 56/2/4
f 52/1/4 53/1/4 57/1/4
f 53/1/4 54/1/4 57/1/4
f 55/1/4 56/1/4 57/1/4
f 54/1/4 55/1/4 57/1/4
f 57/1/4 56/1/4 58/1/4
f 58/1/4 56/1/4 59/1/4
f 56/1/4 46/1/4 60/1/4
f 59/1/4 56/1/4 60/1/4
f 58/1/4 59/1/4 61/1/4
f 59/2/4 60/2/4 61/2/4
f 60/1/4 46/1/4 62/1/4
f 61/2/4 60/2/4 62/2/4
f 58/1/4 61/1/4 63/1/4
f 61/1/4 62/1/4 63/1/4
f 62/1/4 46/1/4 64/1/4
f 63/1/4 62/1/4 64/1/4
f 67/1/5 66/1/5 65/1/5
f 68/1/5 66/1/5 67/1/5
f 71/1/5 70/1/5 69/1/5
f 72/1/5 70/1/5 71/1/5
f 77/1/5 74/1/5 73/1/5
f 78/1/5 74/1/5 77/1/5
f 79/1/5 76/1/5 75/1/5
f 80/1/5 76/1/5 79/1/5
f 81/1/6 82/1/6 83/1/6
f 83/1/6 82/1/6 84/1/6
f 85/1/6 86/1/6 87/1/6
f 87/1/6 86/1/6 88/1/6
