# Blender 4.3.2
# www.blender.org
mtllib Lantern.mtl
o Untitled
v 0.300000 0.000000 0.700000
v 0.300000 0.000000 0.300000
v 0.300000 0.200000 0.700000
v 0.300000 0.200000 0.300000
v 0.300000 0.600000 0.700000
v 0.300000 0.600000 0.300000
v 0.300000 0.800000 0.500000
v 0.300000 0.800000 0.300000
v 0.300000 1.000000 0.700000
v 0.300000 1.000000 0.500000
v 0.500000 0.800000 0.500000
v 0.500000 0.800000 0.300000
v 0.500000 1.000000 0.500000
v 0.500000 1.000000 0.300000
v 0.500000 0.800000 0.700000
v 0.500000 0.800000 0.500000
v 0.500000 1.000000 0.700000
v 0.500000 1.000000 0.500000
v 0.700000 0.000000 0.700000
v 0.700000 0.000000 0.300000
v 0.700000 0.200000 0.700000
v 0.700000 0.200000 0.300000
v 0.700000 0.600000 0.700000
v 0.700000 0.600000 0.300000
v 0.700000 0.800000 0.700000
v 0.700000 0.800000 0.500000
v 0.700000 1.000000 0.500000
v 0.700000 1.000000 0.300000
v 0.300000 0.000000 0.700000
v 0.300000 0.200000 0.700000
v 0.300000 0.600000 0.700000
v 0.300000 1.000000 0.700000
v 0.500000 0.800000 0.700000
v 0.500000 1.000000 0.700000
v 0.700000 0.000000 0.700000
v 0.700000 0.200000 0.700000
v 0.700000 0.600000 0.700000
v 0.700000 0.800000 0.700000
v 0.500000 0.800000 0.500000
v 0.500000 1.000000 0.500000
v 0.700000 0.800000 0.500000
v 0.700000 1.000000 0.500000
v 0.300000 0.800000 0.500000
v 0.300000 1.000000 0.500000
v 0.500000 0.800000 0.500000
v 0.500000 1.000000 0.500000
v 0.300000 0.000000 0.300000
v 0.300000 0.200000 0.300000
v 0.300000 0.600000 0.300000
v 0.300000 0.800000 0.300000
v 0.500000 0.800000 0.300000
v 0.500000 1.000000 0.300000
v 0.700000 0.000000 0.300000
v 0.700000 0.200000 0.300000
v 0.700000 0.600000 0.300000
v 0.700000 1.000000 0.300000
v 0.300000 0.000000 0.700000
v 0.700000 0.000000 0.700000
v 0.300000 0.000000 0.300000
v 0.700000 0.000000 0.300000
v 0.500000 0.800000 0.700000
v 0.700000 0.800000 0.700000
v 0.300000 0.800000 0.500000
v 0.500000 0.800000 0.500000
v 0.700000 0.800000 0.500000
v 0.300000 0.800000 0.300000
v 0.500000 0.800000 0.300000
v 0.300000 1.000000 0.700000
v 0.500000 1.000000 0.700000
v 0.300000 1.000000 0.500000
v 0.500000 1.000000 0.500000
v 0.700000 1.000000 0.500000
v 0.500000 1.000000 0.300000
v 0.700000 1.000000 0.300000
vn -1.0000 -0.0000 -0.0000
vn 1.0000 -0.0000 -0.0000
vn -0.0000 -0.0000 1.0000
vn -0.0000 -0.0000 -1.0000
vn -0.0000 -1.0000 -0.0000
vn -0.0000 1.0000 -0.0000
vt 0.412109 0.500000
vt 0.408203 0.500000
s 1
usemtl palette.015
f 3/1/1 2/1/1 1/1/1
f 4/1/1 2/1/1 3/1/1
f 5/2/1 4/2/1 3/2/1
f 6/2/1 4/2/1 5/2/1
f 7/1/1 6/1/1 5/1/1
f 8/1/1 6/1/1 7/1/1
f 9/1/1 7/1/1 5/1/1
f 10/1/1 7/1/1 9/1/1
f 13/1/1 12/1/1 11/1/1
f 14/1/1 12/1/1 13/1/1
f 15/1/2 16/1/2 17/1/2
f 17/1/2 16/1/2 18/1/2
f 19/1/2 20/1/2 21/1/2
f 21/1/2 20/1/2 22/1/2
f 21/2/2 22/2/2 23/2/2
f 23/2/2 22/2/2 24/2/2
f 23/1/2 24/1/2 25/1/2
f 25/1/2 24/1/2 26/1/2
f 26/1/2 24/1/2 27/1/2
f 27/1/2 24/1/2 28/1/2
f 33/1/3 32/1/3 31/1/3
f 34/1/3 32/1/3 33/1/3
f 35/1/3 30/1/3 29/1/3
f 36/2/3 31/2/3 30/2/3
f 36/1/3 30/1/3 35/1/3
f 37/1/3 33/1/3 31/1/3
f 37/2/3 31/2/3 36/2/3
f 38/1/3 33/1/3 37/1/3
f 41/1/3 40/1/3 39/1/3
f 42/1/3 40/1/3 41/1/3
f 43/1/4 44/1/4 45/1/4
f 45/1/4 44/1/4 46/1/4
f 49/1/4 50/1/4 51/1/4
f 47/1/4 48/1/4 53/1/4
f 48/2/4 49/2/4 54/2/4
f 53/1/4 48/1/4 54/1/4
f 51/1/4 52/1/4 55/1/4
f 54/2/4 49/2/4 55/2/4
f 49/1/4 51/1/4 55/1/4
f 55/1/4 52/1/4 56/1/4
f 59/1/5 58/1/5 57/1/5
f 60/1/5 58/1/5 59/1/5
f 61/1/6 62/1/6 64/1/6
f 64/1/6 62/1/6 65/1/6
f 63/1/6 64/1/6 66/1/6
f 66/1/6 64/1/6 67/1/6
f 68/1/6 69/1/6 70/1/6
f 70/1/6 69/1/6 71/1/6
f 71/1/6 72/1/6 73/1/6
f 73/1/6 72/1/6 74/1/6
