# Blender 4.3.2
# www.blender.org
mtllib Lava.mtl
o Untitled.030
v 0.000000 0.000000 1.000000
v 0.000000 0.000000 0.875000
v 0.000000 0.000000 0.750000
v 0.000000 0.000000 0.625000
v 0.000000 0.000000 0.500000
v 0.000000 0.000000 0.000000
v 0.000000 0.125000 0.875000
v 0.000000 0.125000 0.750000
v 0.000000 0.125000 0.625000
v 0.000000 0.125000 0.500000
v 0.000000 0.125000 0.375000
v 0.000000 0.125000 0.250000
v 0.000000 0.125000 0.000000
v 0.000000 0.250000 1.000000
v 0.000000 0.250000 0.625000
v 0.000000 0.250000 0.250000
v 0.000000 0.250000 0.000000
v 0.000000 0.375000 0.625000
v 0.000000 0.375000 0.500000
v 0.000000 0.375000 0.250000
v 0.000000 0.375000 0.000000
v 0.000000 0.500000 1.000000
v 0.000000 0.500000 0.875000
v 0.000000 0.500000 0.625000
v 0.000000 0.500000 0.500000
v 0.000000 0.500000 0.375000
v 0.000000 0.500000 0.250000
v 0.000000 0.500000 0.125000
v 0.000000 0.625001 1.000000
v 0.000000 0.625001 0.875000
v 0.000000 0.625001 0.750000
v 0.000000 0.625001 0.625000
v 0.000000 0.625001 0.500000
v 0.000000 0.625001 0.250000
v 0.000000 0.625001 0.125000
v 0.000000 0.625001 0.000000
v 0.000000 0.750000 1.000000
v 0.000000 0.750000 0.750000
v 0.000000 0.750000 0.625000
v 0.000000 0.750000 0.125000
v 0.000000 0.750000 0.000000
v 0.000000 0.875000 1.000000
v 0.000000 0.875000 0.750000
v 0.000000 0.875000 0.625000
v 0.000000 0.875000 0.125000
v 0.000000 0.875000 0.000000
v 1.000000 0.000000 1.000000
v 1.000000 0.000000 0.750000
v 1.000000 0.000000 0.500000
v 1.000000 0.000000 0.250000
v 1.000000 0.000000 0.000000
v 1.000000 0.125000 0.750000
v 1.000000 0.125000 0.500000
v 1.000000 0.125000 0.375000
v 1.000000 0.125000 0.250000
v 1.000000 0.125000 0.000000
v 1.000000 0.250000 1.000000
v 1.000000 0.250000 0.875000
v 1.000000 0.250000 0.750000
v 1.000000 0.250000 0.500000
v 1.000000 0.250000 0.375000
v 1.000000 0.250000 0.125000
v 1.000000 0.375000 1.000000
v 1.000000 0.375000 0.875000
v 1.000000 0.375000 0.250000
v 1.000000 0.375000 0.125000
v 1.000000 0.500000 0.875000
v 1.000000 0.500000 0.750000
v 1.000000 0.500000 0.625000
v 1.000000 0.500000 0.375000
v 1.000000 0.500000 0.250000
v 1.000000 0.500000 0.000000
v 1.000000 0.625001 1.000000
v 1.000000 0.625001 0.875000
v 1.000000 0.625001 0.750000
v 1.000000 0.625001 0.375000
v 1.000000 0.625001 0.250000
v 1.000000 0.625001 0.000000
v 1.000000 0.750000 1.000000
v 1.000000 0.750000 0.875000
v 1.000000 0.750000 0.500000
v 1.000000 0.750000 0.375000
v 1.000000 0.750000 0.125000
v 1.000000 0.750000 0.000000
v 1.000000 0.875000 1.000000
v 1.000000 0.875000 0.625000
v 1.000000 0.875000 0.250000
v 1.000000 0.875000 0.125000
v 1.000000 0.875000 0.000000
v 0.000000 0.000000 1.000000
v 0.000000 0.250000 1.000000
v 0.000000 0.500000 1.000000
v 0.000000 0.625001 1.000000
v 0.000000 0.750000 1.000000
v 0.000000 0.875000 1.000000
v 0.125000 0.375000 1.000000
v 0.125000 0.500000 1.000000
v 0.125000 0.625001 1.000000
v 0.125000 0.750000 1.000000
v 0.125000 0.875000 1.000000
v 0.250000 0.000000 1.000000
v 0.250000 0.250000 1.000000
v 0.250000 0.375000 1.000000
v 0.250000 0.500000 1.000000
v 0.250000 0.750000 1.000000
v 0.375000 0.500000 1.000000
v 0.375000 0.625001 1.000000
v 0.375000 0.750000 1.000000
v 0.375000 0.875000 1.000000
v 0.500000 0.000000 1.000000
v 0.500000 0.125000 1.000000
v 0.625000 0.500000 1.000000
v 0.625000 0.625001 1.000000
v 0.625000 0.750000 1.000000
v 0.750000 0.125000 1.000000
v 0.750000 0.250000 1.000000
v 0.750000 0.375000 1.000000
v 0.750000 0.625001 1.000000
v 0.750000 0.750000 1.000000
v 0.875000 0.625001 1.000000
v 0.875000 0.750000 1.000000
v 1.000000 0.000000 1.000000
v 1.000000 0.250000 1.000000
v 1.000000 0.375000 1.000000
v 1.000000 0.625001 1.000000
v 1.000000 0.750000 1.000000
v 1.000000 0.875000 1.000000
v 0.000000 0.000000 0.000000
v 0.000000 0.125000 0.000000
v 0.000000 0.250000 0.000000
v 0.000000 0.375000 0.000000
v 0.000000 0.625001 0.000000
v 0.000000 0.750000 0.000000
v 0.000000 0.875000 0.000000
v 0.125000 0.000000 0.000000
v 0.125000 0.125000 0.000000
v 0.125000 0.500000 0.000000
v 0.125000 0.625001 0.000000
v 0.250000 0.000000 0.000000
v 0.250000 0.250000 0.000000
v 0.250000 0.375000 0.000000
v 0.375000 0.250000 0.000000
v 0.375000 0.500000 0.000000
v 0.375000 0.750000 0.000000
v 0.500000 0.000000 0.000000
v 0.500000 0.375000 0.000000
v 0.500000 0.500000 0.000000
v 0.500000 0.625001 0.000000
v 0.500000 0.750000 0.000000
v 0.500000 0.875000 0.000000
v 0.625000 0.625001 0.000000
v 0.625000 0.750000 0.000000
v 0.750000 0.000000 0.000000
v 0.750000 0.375000 0.000000
v 0.750000 0.500000 0.000000
v 0.750000 0.750000 0.000000
v 0.750000 0.875000 0.000000
v 0.875000 0.000000 0.000000
v 0.875000 0.125000 0.000000
v 0.875000 0.375000 0.000000
v 0.875000 0.500000 0.000000
v 0.875000 0.625001 0.000000
v 1.000000 0.000000 0.000000
v 1.000000 0.125000 0.000000
v 1.000000 0.500000 0.000000
v 1.000000 0.625001 0.000000
v 1.000000 0.750000 0.000000
v 1.000000 0.875000 0.000000
v 0.000000 0.000000 1.000000
v 0.250000 0.000000 1.000000
v 0.500000 0.000000 1.000000
v 1.000000 0.000000 1.000000
v 0.000000 0.000000 0.875000
v 0.250000 0.000000 0.875000
v 0.500000 0.000000 0.875000
v 0.750000 0.000000 0.875000
v 0.000000 0.000000 0.750000
v 0.125000 0.000000 0.750000
v 0.250000 0.000000 0.750000
v 0.375000 0.000000 0.750000
v 0.500000 0.000000 0.750000
v 0.750000 0.000000 0.750000
v 1.000000 0.000000 0.750000
v 0.000000 0.000000 0.625000
v 0.125000 0.000000 0.625000
v 0.250000 0.000000 0.625000
v 0.375000 0.000000 0.625000
v 0.625000 0.000000 0.625000
v 0.750000 0.000000 0.625000
v 0.000000 0.000000 0.500000
v 0.125000 0.000000 0.500000
v 0.250000 0.000000 0.500000
v 0.375000 0.000000 0.500000
v 0.625000 0.000000 0.500000
v 0.750000 0.000000 0.500000
v 0.875000 0.000000 0.500000
v 1.000000 0.000000 0.500000
v 0.375000 0.000000 0.375000
v 0.500000 0.000000 0.375000
v 0.750000 0.000000 0.375000
v 0.875000 0.000000 0.375000
v 0.625000 0.000000 0.250000
v 0.750000 0.000000 0.250000
v 0.875000 0.000000 0.250000
v 1.000000 0.000000 0.250000
v 0.500000 0.000000 0.125000
v 0.625000 0.000000 0.125000
v 0.000000 0.000000 0.000000
v 0.125000 0.000000 0.000000
v 0.250000 0.000000 0.000000
v 0.500000 0.000000 0.000000
v 0.750000 0.000000 0.000000
v 0.875000 0.000000 0.000000
v 1.000000 0.000000 0.000000
v 0.000000 0.875000 1.000000
v 0.125000 0.875000 1.000000
v 0.375000 0.875000 1.000000
v 1.000000 0.875000 1.000000
v 0.625000 0.875000 0.875000
v 0.750000 0.875000 0.875000
v 0.000000 0.875000 0.750000
v 0.125000 0.875000 0.750000
v 0.375000 0.875000 0.750000
v 0.500000 0.875000 0.750000
v 0.625000 0.875000 0.750000
v 0.750000 0.875000 0.750000
v 0.000000 0.875000 0.625000
v 0.375000 0.875000 0.625000
v 0.625000 0.875000 0.625000
v 0.750000 0.875000 0.625000
v 0.875000 0.875000 0.625000
v 1.000000 0.875000 0.625000
v 0.375000 0.875000 0.500000
v 0.500000 0.875000 0.500000
v 0.625000 0.875000 0.500000
v 0.750000 0.875000 0.500000
v 0.875000 0.875000 0.500000
v 0.250000 0.875000 0.375000
v 0.375000 0.875000 0.375000
v 0.625000 0.875000 0.375000
v 0.750000 0.875000 0.375000
v 0.250000 0.875000 0.250000
v 0.375000 0.875000 0.250000
v 0.500000 0.875000 0.250000
v 0.625000 0.875000 0.250000
v 0.750000 0.875000 0.250000
v 1.000000 0.875000 0.250000
v 0.000000 0.875000 0.125000
v 0.500000 0.875000 0.125000
v 0.625000 0.875000 0.125000
v 0.750000 0.875000 0.125000
v 1.000000 0.875000 0.125000
v 0.000000 0.875000 0.000000
v 0.500000 0.875000 0.000000
v 0.750000 0.875000 0.000000
v 1.000000 0.875000 0.000000
vn -1.0000 -0.0000 -0.0000
vn 1.0000 -0.0000 -0.0000
vn -0.0000 -0.0000 1.0000
vn -0.0000 -0.0000 -1.0000
vn -0.0000 -1.0000 -0.0000
vn -0.0000 1.0000 -0.0000
vt 0.849609 0.500000
vt 0.845703 0.500000
s 1
usemtl palette.030
f 7/1/1 2/1/1 1/1/1
f 7/2/1 3/2/1 2/2/1
f 8/1/1 4/1/1 3/1/1
f 8/2/1 3/2/1 7/2/1
f 9/2/1 5/2/1 4/2/1
f 9/1/1 4/1/1 8/1/1
f 10/1/1 6/1/1 5/1/1
f 10/2/1 5/2/1 9/2/1
f 11/1/1 6/1/1 10/1/1
f 12/1/1 6/1/1 11/1/1
f 13/1/1 6/1/1 12/1/1
f 14/1/1 9/1/1 8/1/1
f 14/1/1 8/1/1 7/1/1
f 14/1/1 7/1/1 1/1/1
f 14/1/1 10/1/1 9/1/1
f 15/1/1 10/1/1 14/1/1
f 16/2/1 13/2/1 12/2/1
f 16/1/1 12/1/1 11/1/1
f 17/2/1 13/2/1 16/2/1
f 18/1/1 10/1/1 15/1/1
f 18/2/1 15/2/1 14/2/1
f 19/2/1 11/2/1 10/2/1
f 19/1/1 10/1/1 18/1/1
f 20/1/1 17/1/1 16/1/1
f 20/1/1 16/1/1 11/1/1
f 21/1/1 17/1/1 20/1/1
f 22/2/1 18/2/1 14/2/1
f 22/2/1 19/2/1 18/2/1
f 23/2/1 19/2/1 22/2/1
f 24/2/1 19/2/1 23/2/1
f 25/2/1 11/2/1 19/2/1
f 25/2/1 19/2/1 24/2/1
f 26/1/1 20/1/1 11/1/1
f 26/2/1 11/2/1 25/2/1
f 27/2/1 21/2/1 20/2/1
f 27/1/1 20/1/1 26/1/1
f 28/2/1 21/2/1 27/2/1
f 29/1/1 23/1/1 22/1/1
f 30/2/1 24/2/1 23/2/1
f 30/1/1 23/1/1 29/1/1
f 31/2/1 24/2/1 30/2/1
f 32/1/1 25/1/1 24/1/1
f 32/2/1 24/2/1 31/2/1
f 33/2/1 26/2/1 25/2/1
f 33/1/1 25/1/1 32/1/1
f 33/2/1 27/2/1 26/2/1
f 34/1/1 28/1/1 27/1/1
f 34/2/1 27/2/1 33/2/1
f 35/2/1 21/2/1 28/2/1
f 35/1/1 28/1/1 34/1/1
f 36/2/1 21/2/1 35/2/1
f 37/2/1 31/2/1 30/2/1
f 37/2/1 30/2/1 29/2/1
f 38/1/1 32/1/1 31/1/1
f 38/2/1 31/2/1 37/2/1
f 39/2/1 34/2/1 33/2/1
f 39/1/1 32/1/1 38/1/1
f 39/2/1 33/2/1 32/2/1
f 39/2/1 35/2/1 34/2/1
f 40/1/1 36/1/1 35/1/1
f 40/2/1 35/2/1 39/2/1
f 41/1/1 36/1/1 40/1/1
f 42/1/1 38/1/1 37/1/1
f 43/2/1 39/2/1 38/2/1
f 43/1/1 38/1/1 42/1/1
f 44/1/1 40/1/1 39/1/1
f 44/2/1 39/2/1 43/2/1
f 45/2/1 41/2/1 40/2/1
f 45/1/1 40/1/1 44/1/1
f 46/2/1 41/2/1 45/2/1
f 47/1/2 48/1/2 52/1/2
f 48/2/2 49/2/2 52/2/2
f 49/1/2 50/1/2 53/1/2
f 52/2/2 49/2/2 53/2/2
f 53/1/2 50/1/2 54/1/2
f 50/2/2 51/2/2 55/2/2
f 54/1/2 50/1/2 55/1/2
f 55/2/2 51/2/2 56/2/2
f 47/1/2 52/1/2 57/1/2
f 52/1/2 53/1/2 57/1/2
f 57/1/2 53/1/2 58/1/2
f 58/1/2 53/1/2 59/1/2
f 53/2/2 54/2/2 60/2/2
f 59/1/2 53/1/2 60/1/2
f 55/1/2 56/1/2 61/1/2
f 60/2/2 54/2/2 61/2/2
f 54/1/2 55/1/2 61/1/2
f 61/1/2 56/1/2 62/1/2
f 57/2/2 58/2/2 63/2/2
f 58/1/2 59/1/2 64/1/2
f 63/2/2 58/2/2 64/2/2
f 61/2/2 62/2/2 65/2/2
f 62/1/2 56/1/2 66/1/2
f 65/2/2 62/2/2 66/2/2
f 64/1/2 59/1/2 67/1/2
f 63/1/2 64/1/2 67/1/2
f 59/2/2 60/2/2 68/2/2
f 67/1/2 59/1/2 68/1/2
f 68/2/2 60/2/2 69/2/2
f 61/2/2 65/2/2 70/2/2
f 60/1/2 61/1/2 70/1/2
f 65/1/2 66/1/2 71/1/2
f 70/2/2 65/2/2 71/2/2
f 66/1/2 56/1/2 72/1/2
f 71/1/2 66/1/2 72/1/2
f 63/1/2 67/1/2 73/1/2
f 67/2/2 68/2/2 74/2/2
f 73/1/2 67/1/2 74/1/2
f 68/1/2 69/1/2 75/1/2
f 74/2/2 68/2/2 75/2/2
f 70/1/2 71/1/2 76/1/2
f 60/1/2 70/1/2 76/1/2
f 71/2/2 72/2/2 77/2/2
f 76/1/2 71/1/2 77/1/2
f 77/2/2 72/2/2 78/2/2
f 73/2/2 74/2/2 79/2/2
f 74/1/2 75/1/2 80/1/2
f 79/2/2 74/2/2 80/2/2
f 69/2/2 60/2/2 81/2/2
f 60/1/2 76/1/2 81/1/2
f 76/2/2 77/2/2 82/2/2
f 81/1/2 76/1/2 82/1/2
f 77/1/2 78/1/2 83/1/2
f 83/1/2 78/1/2 84/1/2
f 79/1/2 80/1/2 85/1/2
f 80/1/2 75/1/2 86/1/2
f 85/1/2 80/1/2 86/1/2
f 75/1/2 69/1/2 86/1/2
f 69/2/2 81/2/2 86/2/2
f 81/2/2 82/2/2 86/2/2
f 77/1/2 83/1/2 87/1/2
f 86/2/2 82/2/2 87/2/2
f 82/2/2 77/2/2 87/2/2
f 83/2/2 84/2/2 88/2/2
f 87/1/2 83/1/2 88/1/2
f 88/2/2 84/2/2 89/2/2
f 96/2/3 92/2/3 91/2/3
f 97/1/3 93/1/3 92/1/3
f 97/2/3 92/2/3 96/2/3
f 98/2/3 94/2/3 93/2/3
f 98/1/3 93/1/3 97/1/3
f 99/1/3 95/1/3 94/1/3
f 99/2/3 94/2/3 98/2/3
f 100/1/3 95/1/3 99/1/3
f 101/1/3 91/1/3 90/1/3
f 102/2/3 96/2/3 91/2/3
f 102/1/3 91/1/3 101/1/3
f 103/1/3 97/1/3 96/1/3
f 103/2/3 96/2/3 102/2/3
f 104/2/3 98/2/3 97/2/3
f 104/1/3 97/1/3 103/1/3
f 104/2/3 99/2/3 98/2/3
f 104/2/3 100/2/3 99/2/3
f 105/2/3 100/2/3 104/2/3
f 106/1/3 103/1/3 102/1/3
f 106/1/3 104/1/3 103/1/3
f 106/1/3 105/1/3 104/1/3
f 107/1/3 105/1/3 106/1/3
f 108/2/3 100/2/3 105/2/3
f 108/1/3 105/1/3 107/1/3
f 109/2/3 100/2/3 108/2/3
f 110/2/3 102/2/3 101/2/3
f 111/2/3 102/2/3 110/2/3
f 112/2/3 107/2/3 106/2/3
f 112/1/3 106/1/3 102/1/3
f 113/1/3 108/1/3 107/1/3
f 113/2/3 107/2/3 112/2/3
f 113/1/3 109/1/3 108/1/3
f 114/1/3 109/1/3 113/1/3
f 115/2/3 102/2/3 111/2/3
f 115/1/3 111/1/3 110/1/3
f 116/1/3 112/1/3 102/1/3
f 116/2/3 102/2/3 115/2/3
f 116/1/3 113/1/3 112/1/3
f 117/1/3 113/1/3 116/1/3
f 118/2/3 114/2/3 113/2/3
f 118/1/3 113/1/3 117/1/3
f 119/1/3 109/1/3 114/1/3
f 119/2/3 114/2/3 118/2/3
f 120/1/3 118/1/3 117/1/3
f 120/1/3 119/1/3 118/1/3
f 121/1/3 109/1/3 119/1/3
f 121/1/3 119/1/3 120/1/3
f 122/1/3 115/1/3 110/1/3
f 122/1/3 116/1/3 115/1/3
f 123/2/3 117/2/3 116/2/3
f 123/1/3 116/1/3 122/1/3
f 124/1/3 120/1/3 117/1/3
f 124/2/3 117/2/3 123/2/3
f 125/2/3 121/2/3 120/2/3
f 125/1/3 120/1/3 124/1/3
f 126/1/3 109/1/3 121/1/3
f 126/2/3 121/2/3 125/2/3
f 127/1/3 109/1/3 126/1/3
f 128/1/4 129/1/4 135/1/4
f 129/2/4 130/2/4 136/2/4
f 135/1/4 129/1/4 136/1/4
f 131/2/4 132/2/4 137/2/4
f 132/1/4 133/1/4 138/1/4
f 137/2/4 132/2/4 138/2/4
f 135/2/4 136/2/4 139/2/4
f 130/1/4 131/1/4 140/1/4
f 139/2/4 136/2/4 140/2/4
f 136/2/4 130/2/4 140/2/4
f 131/2/4 137/2/4 141/2/4
f 140/1/4 131/1/4 141/1/4
f 139/1/4 140/1/4 142/1/4
f 140/2/4 141/2/4 142/2/4
f 137/1/4 138/1/4 143/1/4
f 142/2/4 141/2/4 143/2/4
f 141/2/4 137/2/4 143/2/4
f 133/2/4 134/2/4 144/2/4
f 143/1/4 138/1/4 144/1/4
f 138/1/4 133/1/4 144/1/4
f 142/1/4 143/1/4 145/1/4
f 139/1/4 142/1/4 145/1/4
f 145/1/4 143/1/4 146/1/4
f 143/2/4 144/2/4 147/2/4
f 146/1/4 143/1/4 147/1/4
f 147/2/4 144/2/4 148/2/4
f 144/2/4 134/2/4 149/2/4
f 148/2/4 144/2/4 149/2/4
f 149/2/4 134/2/4 150/2/4
f 147/1/4 148/1/4 151/1/4
f 146/1/4 147/1/4 151/1/4
f 148/2/4 149/2/4 151/2/4
f 149/1/4 150/1/4 152/1/4
f 151/2/4 149/2/4 152/2/4
f 145/2/4 146/2/4 153/2/4
f 146/1/4 151/1/4 154/1/4
f 153/2/4 146/2/4 154/2/4
f 151/1/4 152/1/4 154/1/4
f 154/1/4 152/1/4 155/1/4
f 152/1/4 150/1/4 156/1/4
f 155/1/4 152/1/4 156/1/4
f 156/1/4 150/1/4 157/1/4
f 153/1/4 154/1/4 158/1/4
f 158/1/4 154/1/4 159/1/4
f 154/2/4 155/2/4 160/2/4
f 159/1/4 154/1/4 160/1/4
f 155/1/4 156/1/4 161/1/4
f 160/2/4 155/2/4 161/2/4
f 161/1/4 156/1/4 162/1/4
f 158/2/4 159/2/4 163/2/4
f 159/1/4 160/1/4 164/1/4
f 163/2/4 159/2/4 164/2/4
f 160/1/4 161/1/4 164/1/4
f 161/2/4 162/2/4 165/2/4
f 164/1/4 161/1/4 165/1/4
f 162/1/4 156/1/4 166/1/4
f 165/2/4 162/2/4 166/2/4
f 156/2/4 157/2/4 167/2/4
f 166/1/4 156/1/4 167/1/4
f 167/2/4 157/2/4 168/2/4
f 173/1/5 170/1/5 169/1/5
f 174/2/5 171/2/5 170/2/5
f 174/1/5 170/1/5 173/1/5
f 175/1/5 172/1/5 171/1/5
f 175/2/5 171/2/5 174/2/5
f 176/1/5 172/1/5 175/1/5
f 177/2/5 174/2/5 173/2/5
f 177/2/5 175/2/5 174/2/5
f 177/2/5 176/2/5 175/2/5
f 178/2/5 176/2/5 177/2/5
f 179/2/5 176/2/5 178/2/5
f 180/2/5 176/2/5 179/2/5
f 181/2/5 176/2/5 180/2/5
f 182/1/5 172/1/5 176/1/5
f 182/2/5 176/2/5 181/2/5
f 183/1/5 172/1/5 182/1/5
f 184/1/5 178/1/5 177/1/5
f 185/2/5 179/2/5 178/2/5
f 185/1/5 178/1/5 184/1/5
f 186/1/5 180/1/5 179/1/5
f 186/2/5 179/2/5 185/2/5
f 187/2/5 181/2/5 180/2/5
f 187/1/5 180/1/5 186/1/5
f 188/1/5 182/1/5 181/1/5
f 189/2/5 183/2/5 182/2/5
f 189/1/5 182/1/5 188/1/5
f 190/2/5 186/2/5 185/2/5
f 190/2/5 185/2/5 184/2/5
f 190/2/5 187/2/5 186/2/5
f 191/2/5 187/2/5 190/2/5
f 192/2/5 187/2/5 191/2/5
f 193/2/5 181/2/5 187/2/5
f 193/2/5 187/2/5 192/2/5
f 194/2/5 189/2/5 188/2/5
f 194/1/5 188/1/5 181/1/5
f 195/2/5 183/2/5 189/2/5
f 195/2/5 189/2/5 194/2/5
f 196/2/5 183/2/5 195/2/5
f 197/2/5 183/2/5 196/2/5
f 198/2/5 181/2/5 193/2/5
f 198/1/5 193/1/5 192/1/5
f 199/1/5 194/1/5 181/1/5
f 199/2/5 181/2/5 198/2/5
f 199/1/5 195/1/5 194/1/5
f 200/2/5 196/2/5 195/2/5
f 200/1/5 195/1/5 199/1/5
f 201/1/5 197/1/5 196/1/5
f 201/2/5 196/2/5 200/2/5
f 202/1/5 200/1/5 199/1/5
f 202/1/5 199/1/5 198/1/5
f 202/1/5 201/1/5 200/1/5
f 203/1/5 201/1/5 202/1/5
f 204/1/5 197/1/5 201/1/5
f 204/1/5 201/1/5 203/1/5
f 205/1/5 197/1/5 204/1/5
f 206/1/5 202/1/5 198/1/5
f 207/2/5 203/2/5 202/2/5
f 207/1/5 202/1/5 206/1/5
f 208/1/5 191/1/5 190/1/5
f 209/2/5 192/2/5 191/2/5
f 209/1/5 191/1/5 208/1/5
f 210/1/5 198/1/5 192/1/5
f 210/2/5 192/2/5 209/2/5
f 210/1/5 206/1/5 198/1/5
f 211/2/5 207/2/5 206/2/5
f 211/1/5 206/1/5 210/1/5
f 212/2/5 203/2/5 207/2/5
f 212/2/5 207/2/5 211/2/5
f 212/1/5 204/1/5 203/1/5
f 213/2/5 205/2/5 204/2/5
f 213/1/5 204/1/5 212/1/5
f 214/2/5 205/2/5 213/2/5
f 217/1/6 218/1/6 219/1/6
f 219/1/6 218/1/6 220/1/6
f 215/1/6 216/1/6 221/1/6
f 216/2/6 217/2/6 222/2/6
f 221/1/6 216/1/6 222/1/6
f 217/1/6 219/1/6 223/1/6
f 222/2/6 217/2/6 223/2/6
f 223/1/6 219/1/6 224/1/6
f 219/2/6 220/2/6 225/2/6
f 224/1/6 219/1/6 225/1/6
f 220/1/6 218/1/6 226/1/6
f 225/2/6 220/2/6 226/2/6
f 221/2/6 222/2/6 227/2/6
f 223/2/6 224/2/6 227/2/6
f 222/2/6 223/2/6 227/2/6
f 227/2/6 224/2/6 228/2/6
f 224/1/6 225/1/6 229/1/6
f 225/1/6 226/1/6 229/1/6
f 226/1/6 218/1/6 230/1/6
f 229/1/6 226/1/6 230/1/6
f 230/1/6 218/1/6 231/1/6
f 231/1/6 218/1/6 232/1/6
f 228/2/6 224/2/6 233/2/6
f 227/1/6 228/1/6 233/1/6
f 224/1/6 229/1/6 234/1/6
f 233/2/6 224/2/6 234/2/6
f 229/2/6 230/2/6 235/2/6
f 234/1/6 229/1/6 235/1/6
f 230/1/6 231/1/6 236/1/6
f 235/2/6 230/2/6 236/2/6
f 231/2/6 232/2/6 237/2/6
f 236/1/6 231/1/6 237/1/6
f 227/1/6 233/1/6 238/1/6
f 233/1/6 234/1/6 238/1/6
f 238/1/6 234/1/6 239/1/6
f 235/1/6 236/1/6 240/1/6
f 234/2/6 235/2/6 240/2/6
f 236/2/6 237/2/6 241/2/6
f 240/1/6 236/1/6 241/1/6
f 238/2/6 239/2/6 242/2/6
f 227/1/6 238/1/6 242/1/6
f 239/1/6 234/1/6 243/1/6
f 242/2/6 239/2/6 243/2/6
f 234/2/6 240/2/6 244/2/6
f 243/1/6 234/1/6 244/1/6
f 240/2/6 241/2/6 244/2/6
f 244/2/6 241/2/6 245/2/6
f 241/2/6 237/2/6 246/2/6
f 245/2/6 241/2/6 246/2/6
f 237/2/6 232/2/6 247/2/6
f 246/2/6 237/2/6 247/2/6
f 227/1/6 242/1/6 248/1/6
f 242/1/6 243/1/6 248/1/6
f 244/1/6 245/1/6 248/1/6
f 243/1/6 244/1/6 248/1/6
f 248/1/6 245/1/6 249/1/6
f 245/2/6 246/2/6 250/2/6
f 249/1/6 245/1/6 250/1/6
f 246/1/6 247/1/6 251/1/6
f 250/2/6 246/2/6 251/2/6
f 251/1/6 247/1/6 252/1/6
f 248/2/6 249/2/6 253/2/6
f 249/1/6 250/1/6 254/1/6
f 253/2/6 249/2/6 254/2/6
f 250/1/6 251/1/6 254/1/6
f 251/2/6 252/2/6 255/2/6
f 254/1/6 251/1/6 255/1/6
f 255/2/6 252/2/6 256/2/6
