# Blender 4.3.2
# www.blender.org
mtllib coins.mtl
o Untitled.001
v 0.000000 0.000000 0.500000
v 0.000000 0.000000 0.233333
v 0.000000 0.133333 0.500000
v 0.000000 0.133333 0.233333
v 0.166667 0.133333 0.633333
v 0.166667 0.133333 0.500000
v 0.166667 0.133333 0.366667
v 0.166667 0.266666 0.633333
v 0.166667 0.266666 0.366667
v 0.333333 0.000000 0.766667
v 0.333333 0.000000 0.500000
v 0.333333 0.133333 0.766667
v 0.333333 0.133333 0.633333
v 0.333333 0.133333 0.500000
v 0.666667 0.000000 0.500000
v 0.666667 0.000000 0.233333
v 0.666667 0.133333 0.500000
v 0.666667 0.133333 0.233333
v 0.333333 0.000000 0.500000
v 0.333333 0.000000 0.233333
v 0.333333 0.133333 0.500000
v 0.333333 0.133333 0.366667
v 0.333333 0.133333 0.233333
v 0.500000 0.133333 0.633333
v 0.500000 0.133333 0.500000
v 0.500000 0.133333 0.366667
v 0.500000 0.266666 0.633333
v 0.500000 0.266666 0.366667
v 0.666667 0.000000 0.766667
v 0.666667 0.000000 0.500000
v 0.666667 0.133333 0.766667
v 0.666667 0.133333 0.500000
v 1.000000 0.000000 0.500000
v 1.000000 0.000000 0.233333
v 1.000000 0.133333 0.500000
v 1.000000 0.133333 0.233333
v 0.333333 0.000000 0.766667
v 0.333333 0.133333 0.766667
v 0.666667 0.000000 0.766667
v 0.666667 0.133333 0.766667
v 0.166667 0.133333 0.633333
v 0.166667 0.266666 0.633333
v 0.333333 0.133333 0.633333
v 0.500000 0.133333 0.633333
v 0.500000 0.266666 0.633333
v 0.000000 0.000000 0.500000
v 0.000000 0.133333 0.500000
v 0.166667 0.133333 0.500000
v 0.333333 0.000000 0.500000
v 0.333333 0.133333 0.500000
v 0.666667 0.000000 0.500000
v 0.666667 0.133333 0.500000
v 1.000000 0.000000 0.500000
v 1.000000 0.133333 0.500000
v 0.333333 0.000000 0.500000
v 0.333333 0.133333 0.500000
v 0.500000 0.133333 0.500000
v 0.666667 0.000000 0.500000
v 0.666667 0.133333 0.500000
v 0.166667 0.133333 0.366667
v 0.166667 0.266666 0.366667
v 0.333333 0.133333 0.366667
v 0.500000 0.133333 0.366667
v 0.500000 0.266666 0.366667
v 0.000000 0.000000 0.233333
v 0.000000 0.133333 0.233333
v 0.333333 0.000000 0.233333
v 0.333333 0.133333 0.233333
v 0.666667 0.000000 0.233333
v 0.666667 0.133333 0.233333
v 1.000000 0.000000 0.233333
v 1.000000 0.133333 0.233333
v 0.333333 0.000000 0.766667
v 0.666667 0.000000 0.766667
v 0.000000 0.000000 0.500000
v 0.333333 0.000000 0.500000
v 0.666667 0.000000 0.500000
v 1.000000 0.000000 0.500000
v 0.000000 0.000000 0.233333
v 0.333333 0.000000 0.233333
v 0.666667 0.000000 0.233333
v 1.000000 0.000000 0.233333
v 0.166667 0.133333 0.633333
v 0.333333 0.133333 0.633333
v 0.166667 0.133333 0.500000
v 0.333333 0.133333 0.500000
v 0.500000 0.133333 0.500000
v 0.333333 0.133333 0.366667
v 0.500000 0.133333 0.366667
v 0.333333 0.133333 0.766667
v 0.666667 0.133333 0.766667
v 0.333333 0.133333 0.633333
v 0.500000 0.133333 0.633333
v 0.000000 0.133333 0.500000
v 0.166667 0.133333 0.500000
v 0.500000 0.133333 0.500000
v 0.666667 0.133333 0.500000
v 1.000000 0.133333 0.500000
v 0.166667 0.133333 0.366667
v 0.333333 0.133333 0.366667
v 0.000000 0.133333 0.233333
v 0.333333 0.133333 0.233333
v 0.666667 0.133333 0.233333
v 1.000000 0.133333 0.233333
v 0.166667 0.266666 0.633333
v 0.500000 0.266666 0.633333
v 0.166667 0.266666 0.366667
v 0.500000 0.266666 0.366667
vn -1.0000 -0.0000 -0.0000
vn 1.0000 -0.0000 -0.0000
vn -0.0000 -0.0000 1.0000
vn -0.0000 -0.0000 -1.0000
vn -0.0000 -1.0000 -0.0000
vn -0.0000 1.0000 -0.0000
vt 0.751953 0.500000
s 1
usemtl palette.001
f 3/1/1 2/1/1 1/1/1
f 4/1/1 2/1/1 3/1/1
f 8/1/1 6/1/1 5/1/1
f 8/1/1 7/1/1 6/1/1
f 9/1/1 7/1/1 8/1/1
f 12/1/1 11/1/1 10/1/1
f 13/1/1 11/1/1 12/1/1
f 14/1/1 11/1/1 13/1/1
f 17/1/1 16/1/1 15/1/1
f 18/1/1 16/1/1 17/1/1
f 19/1/2 20/1/2 21/1/2
f 21/1/2 20/1/2 22/1/2
f 22/1/2 20/1/2 23/1/2
f 24/1/2 25/1/2 27/1/2
f 25/1/2 26/1/2 27/1/2
f 27/1/2 26/1/2 28/1/2
f 29/1/2 30/1/2 31/1/2
f 31/1/2 30/1/2 32/1/2
f 33/1/2 34/1/2 35/1/2
f 35/1/2 34/1/2 36/1/2
f 39/1/3 38/1/3 37/1/3
f 40/1/3 38/1/3 39/1/3
f 43/1/3 42/1/3 41/1/3
f 44/1/3 42/1/3 43/1/3
f 45/1/3 42/1/3 44/1/3
f 48/1/3 47/1/3 46/1/3
f 49/1/3 48/1/3 46/1/3
f 50/1/3 48/1/3 49/1/3
f 53/1/3 52/1/3 51/1/3
f 54/1/3 52/1/3 53/1/3
f 55/1/4 56/1/4 57/1/4
f 55/1/4 57/1/4 58/1/4
f 58/1/4 57/1/4 59/1/4
f 60/1/4 61/1/4 62/1/4
f 62/1/4 61/1/4 63/1/4
f 63/1/4 61/1/4 64/1/4
f 65/1/4 66/1/4 67/1/4
f 67/1/4 66/1/4 68/1/4
f 69/1/4 70/1/4 71/1/4
f 71/1/4 70/1/4 72/1/4
f 76/1/5 74/1/5 73/1/5
f 77/1/5 74/1/5 76/1/5
f 79/1/5 76/1/5 75/1/5
f 80/1/5 76/1/5 79/1/5
f 81/1/5 78/1/5 77/1/5
f 82/1/5 78/1/5 81/1/5
f 85/1/5 84/1/5 83/1/5
f 86/1/5 84/1/5 85/1/5
f 88/1/5 87/1/5 86/1/5
f 89/1/5 87/1/5 88/1/5
f 90/1/6 91/1/6 92/1/6
f 92/1/6 91/1/6 93/1/6
f 93/1/6 91/1/6 96/1/6
f 96/1/6 91/1/6 97/1/6
f 94/1/6 95/1/6 99/1/6
f 94/1/6 99/1/6 101/1/6
f 99/1/6 100/1/6 101/1/6
f 101/1/6 100/1/6 102/1/6
f 97/1/6 98/1/6 103/1/6
f 103/1/6 98/1/6 104/1/6
f 105/1/6 106/1/6 107/1/6
f 107/1/6 106/1/6 108/1/6
