# Blender 4.3.2
# www.blender.org
mtllib Farmer.mtl
o Untitled.008
v -0.375028 -0.375028 0.375028
v -0.375028 -0.375028 -0.375028
v -0.375028 -0.250019 0.375028
v -0.375028 -0.250019 0.250019
v -0.375028 -0.250019 0.125009
v -0.375028 -0.250019 -0.125009
v -0.375028 -0.250019 -0.250019
v -0.375028 -0.250019 -0.375028
v -0.375028 -0.125009 0.375028
v -0.375028 -0.125009 0.250019
v -0.375028 -0.125009 0.125009
v -0.375028 -0.125009 -0.125009
v -0.375028 -0.125009 -0.250019
v -0.375028 -0.125009 -0.375028
v -0.375028 0.000000 0.250019
v -0.375028 -0.000000 -0.375028
v -0.375028 0.125009 0.375028
v -0.375028 0.125009 0.250019
v -0.375028 0.375028 0.375028
v -0.375028 0.375028 -0.375028
v 0.375028 -0.375028 0.375028
v 0.375028 -0.375028 -0.375028
v 0.375028 -0.250019 0.375028
v 0.375028 -0.250019 0.250019
v 0.375028 -0.250019 0.125009
v 0.375028 -0.250019 -0.125009
v 0.375028 -0.250019 -0.250019
v 0.375028 -0.250019 -0.375028
v 0.375028 -0.125009 0.375028
v 0.375028 -0.125009 0.250019
v 0.375028 -0.125009 0.125009
v 0.375028 -0.125009 -0.125009
v 0.375028 -0.125009 -0.250019
v 0.375028 -0.125009 -0.375028
v 0.375028 0.000000 0.250019
v 0.375028 -0.000000 -0.375028
v 0.375028 0.125009 0.375028
v 0.375028 0.125009 0.250019
v 0.375028 0.375028 0.375028
v 0.375028 0.375028 -0.375028
v -0.375028 -0.375028 0.375028
v -0.375028 -0.250019 0.375028
v -0.375028 -0.125009 0.375028
v -0.375028 0.125009 0.375028
v -0.375028 0.375028 0.375028
v -0.250019 -0.250019 0.375028
v -0.250019 -0.125009 0.375028
v -0.250019 0.000000 0.375028
v -0.250019 0.125009 0.375028
v -0.250019 0.250019 0.375028
v -0.125009 -0.250019 0.375028
v -0.125009 -0.125009 0.375028
v -0.125009 0.000000 0.375028
v -0.125009 0.125009 0.375028
v 0.125009 -0.250019 0.375028
v 0.125009 -0.125009 0.375028
v 0.125009 0.000000 0.375028
v 0.125009 0.125009 0.375028
v 0.250019 -0.250019 0.375028
v 0.250019 -0.125009 0.375028
v 0.250019 0.000000 0.375028
v 0.250019 0.125009 0.375028
v 0.250019 0.250019 0.375028
v 0.375028 -0.375028 0.375028
v 0.375028 -0.250019 0.375028
v 0.375028 -0.125009 0.375028
v 0.375028 0.125009 0.375028
v 0.375028 0.375028 0.375028
v -0.375028 -0.375028 -0.375028
v -0.375028 -0.250019 -0.375028
v -0.375028 -0.125009 -0.375028
v -0.375028 -0.000000 -0.375028
v -0.375028 0.375028 -0.375028
v -0.250019 -0.250019 -0.375028
v -0.250019 -0.125009 -0.375028
v -0.250019 -0.000000 -0.375028
v -0.125009 -0.250019 -0.375028
v -0.125009 -0.125009 -0.375028
v 0.125009 -0.250019 -0.375028
v 0.125009 -0.125009 -0.375028
v 0.250019 -0.250019 -0.375028
v 0.250019 -0.125009 -0.375028
v 0.250019 -0.000000 -0.375028
v 0.375028 -0.375028 -0.375028
v 0.375028 -0.250019 -0.375028
v 0.375028 -0.125009 -0.375028
v 0.375028 -0.000000 -0.375028
v 0.375028 0.375028 -0.375028
v -0.375028 -0.375028 0.375028
v 0.375028 -0.375028 0.375028
v -0.375028 -0.375028 -0.375028
v 0.375028 -0.375028 -0.375028
v -0.375028 0.375028 0.375028
v 0.375028 0.375028 0.375028
v -0.375028 0.375028 -0.375028
v 0.375028 0.375028 -0.375028
vn -1.0000 -0.0000 -0.0000
vn 1.0000 -0.0000 -0.0000
vn -0.0000 -0.0000 1.0000
vn -0.0000 -0.0000 -1.0000
vn -0.0000 -1.0000 -0.0000
vn -0.0000 1.0000 -0.0000
vt 0.224609 0.500000
vt 0.193359 0.500000
vt 0.255859 0.500000
vt 0.189453 0.500000
vt 0.251953 0.500000
s 1
usemtl palette.008
f 3/1/1 2/1/1 1/1/1
f 4/1/1 2/1/1 3/1/1
f 5/1/1 2/1/1 4/1/1
f 6/1/1 2/1/1 5/1/1
f 7/1/1 2/1/1 6/1/1
f 8/1/1 2/1/1 7/1/1
f 9/2/1 4/2/1 3/2/1
f 10/1/1 5/1/1 4/1/1
f 10/2/1 4/2/1 9/2/1
f 11/2/1 6/2/1 5/2/1
f 11/1/1 5/1/1 10/1/1
f 12/1/1 7/1/1 6/1/1
f 12/2/1 6/2/1 11/2/1
f 13/2/1 8/2/1 7/2/1
f 13/1/1 7/1/1 12/1/1
f 14/2/1 8/2/1 13/2/1
f 15/3/1 10/3/1 9/3/1
f 15/3/1 11/3/1 10/3/1
f 15/3/1 14/3/1 13/3/1
f 15/3/1 13/3/1 12/3/1
f 15/3/1 12/3/1 11/3/1
f 16/3/1 14/3/1 15/3/1
f 17/3/1 15/3/1 9/3/1
f 18/4/1 16/4/1 15/4/1
f 18/3/1 15/3/1 17/3/1
f 19/4/1 18/4/1 17/4/1
f 20/4/1 16/4/1 18/4/1
f 20/4/1 18/4/1 19/4/1
f 21/1/2 22/1/2 23/1/2
f 23/1/2 22/1/2 24/1/2
f 24/1/2 22/1/2 25/1/2
f 25/1/2 22/1/2 26/1/2
f 26/1/2 22/1/2 27/1/2
f 27/1/2 22/1/2 28/1/2
f 23/2/2 24/2/2 29/2/2
f 24/1/2 25/1/2 30/1/2
f 29/2/2 24/2/2 30/2/2
f 25/2/2 26/2/2 31/2/2
f 30/1/2 25/1/2 31/1/2
f 26/1/2 27/1/2 32/1/2
f 31/2/2 26/2/2 32/2/2
f 27/2/2 28/2/2 33/2/2
f 32/1/2 27/1/2 33/1/2
f 33/2/2 28/2/2 34/2/2
f 29/3/2 30/3/2 35/3/2
f 30/3/2 31/3/2 35/3/2
f 33/3/2 34/3/2 35/3/2
f 32/3/2 33/3/2 35/3/2
f 31/3/2 32/3/2 35/3/2
f 35/3/2 34/3/2 36/3/2
f 29/3/2 35/3/2 37/3/2
f 35/4/2 36/4/2 38/4/2
f 37/3/2 35/3/2 38/3/2
f 37/4/2 38/4/2 39/4/2
f 38/4/2 36/4/2 40/4/2
f 39/4/2 38/4/2 40/4/2
f 46/1/3 42/1/3 41/1/3
f 46/2/3 43/2/3 42/2/3
f 47/3/3 44/3/3 43/3/3
f 47/2/3 43/2/3 46/2/3
f 48/3/3 44/3/3 47/3/3
f 49/4/3 45/4/3 44/4/3
f 49/3/3 44/3/3 48/3/3
f 50/4/3 45/4/3 49/4/3
f 51/1/3 46/1/3 41/1/3
f 51/1/3 47/1/3 46/1/3
f 52/3/3 48/3/3 47/3/3
f 52/1/3 47/1/3 51/1/3
f 53/5/3 49/5/3 48/5/3
f 53/3/3 48/3/3 52/3/3
f 54/3/3 50/3/3 49/3/3
f 54/5/3 49/5/3 53/5/3
f 55/1/3 51/1/3 41/1/3
f 55/2/3 52/2/3 51/2/3
f 56/3/3 53/3/3 52/3/3
f 56/2/3 52/2/3 55/2/3
f 56/3/3 54/3/3 53/3/3
f 57/3/3 54/3/3 56/3/3
f 58/3/3 50/3/3 54/3/3
f 58/3/3 54/3/3 57/3/3
f 59/1/3 55/1/3 41/1/3
f 59/1/3 56/1/3 55/1/3
f 60/3/3 57/3/3 56/3/3
f 60/1/3 56/1/3 59/1/3
f 61/5/3 58/5/3 57/5/3
f 61/3/3 57/3/3 60/3/3
f 62/3/3 50/3/3 58/3/3
f 62/5/3 58/5/3 61/5/3
f 63/4/3 45/4/3 50/4/3
f 63/3/3 50/3/3 62/3/3
f 64/1/3 59/1/3 41/1/3
f 65/2/3 60/2/3 59/2/3
f 65/1/3 59/1/3 64/1/3
f 66/3/3 62/3/3 61/3/3
f 66/2/3 60/2/3 65/2/3
f 66/3/3 61/3/3 60/3/3
f 67/4/3 63/4/3 62/4/3
f 67/3/3 62/3/3 66/3/3
f 68/4/3 45/4/3 63/4/3
f 68/4/3 63/4/3 67/4/3
f 69/1/4 70/1/4 74/1/4
f 70/2/4 71/2/4 74/2/4
f 71/3/4 72/3/4 75/3/4
f 74/2/4 71/2/4 75/2/4
f 72/4/4 73/4/4 76/4/4
f 75/3/4 72/3/4 76/3/4
f 74/1/4 75/1/4 77/1/4
f 69/1/4 74/1/4 77/1/4
f 75/4/4 76/4/4 78/4/4
f 77/1/4 75/1/4 78/1/4
f 69/1/4 77/1/4 79/1/4
f 77/2/4 78/2/4 79/2/4
f 78/4/4 76/4/4 80/4/4
f 79/2/4 78/2/4 80/2/4
f 69/1/4 79/1/4 81/1/4
f 79/1/4 80/1/4 81/1/4
f 80/4/4 76/4/4 82/4/4
f 81/1/4 80/1/4 82/1/4
f 76/4/4 73/4/4 83/4/4
f 82/4/4 76/4/4 83/4/4
f 69/1/4 81/1/4 84/1/4
f 81/2/4 82/2/4 85/2/4
f 84/1/4 81/1/4 85/1/4
f 82/3/4 83/3/4 86/3/4
f 85/2/4 82/2/4 86/2/4
f 83/4/4 73/4/4 87/4/4
f 86/3/4 83/3/4 87/3/4
f 87/4/4 73/4/4 88/4/4
f 91/1/5 90/1/5 89/1/5
f 92/1/5 90/1/5 91/1/5
f 93/4/6 94/4/6 95/4/6
f 95/4/6 94/4/6 96/4/6
