# Blender 4.3.2
# www.blender.org
mtllib Flowers.mtl
o Untitled.021
v -0.125009 -0.375028 0.000000
v -0.125009 -0.375028 -0.125009
v -0.125009 -0.125009 0.000000
v -0.125009 -0.125009 -0.125009
v -0.125009 0.125009 -0.000000
v -0.125009 0.125009 -0.125009
v -0.125009 0.250019 -0.000000
v -0.125009 0.250019 -0.125009
v 0.000000 -0.125009 0.000000
v 0.000000 -0.125009 -0.125009
v 0.000000 0.125009 0.125009
v 0.000000 0.125009 -0.000000
v 0.000000 0.125009 -0.125009
v 0.000000 0.125009 -0.250019
v 0.000000 0.250019 0.125009
v 0.000000 0.250019 -0.000000
v 0.000000 0.250019 -0.125009
v 0.000000 0.250019 -0.250019
v 0.000000 0.375028 -0.000000
v 0.000000 0.375028 -0.125009
v 0.000000 -0.375028 0.000000
v 0.000000 -0.375028 -0.125009
v 0.000000 -0.250019 0.000000
v 0.000000 -0.250019 -0.125009
v 0.125009 -0.250019 0.000000
v 0.125009 -0.250019 -0.125009
v 0.125009 0.125009 0.125009
v 0.125009 0.125009 -0.000000
v 0.125009 0.125009 -0.125009
v 0.125009 0.125009 -0.250019
v 0.125009 0.250019 0.125009
v 0.125009 0.250019 -0.000000
v 0.125009 0.250019 -0.125009
v 0.125009 0.250019 -0.250019
v 0.125009 0.375028 -0.000000
v 0.125009 0.375028 -0.125009
v 0.250019 0.125009 -0.000000
v 0.250019 0.125009 -0.125009
v 0.250019 0.250019 -0.000000
v 0.250019 0.250019 -0.125009
v 0.000000 0.125009 0.125009
v 0.000000 0.250019 0.125009
v 0.125009 0.125009 0.125009
v 0.125009 0.250019 0.125009
v -0.125009 -0.375028 0.000000
v -0.125009 -0.125009 0.000000
v -0.125009 0.125009 -0.000000
v -0.125009 0.250019 -0.000000
v 0.000000 -0.375028 0.000000
v 0.000000 -0.250019 0.000000
v 0.000000 -0.125009 0.000000
v 0.000000 0.125009 -0.000000
v 0.000000 0.250019 -0.000000
v 0.000000 0.375028 -0.000000
v 0.125009 -0.250019 0.000000
v 0.125009 0.125009 -0.000000
v 0.125009 0.250019 -0.000000
v 0.125009 0.375028 -0.000000
v 0.250019 0.125009 -0.000000
v 0.250019 0.250019 -0.000000
v -0.125009 -0.375028 -0.125009
v -0.125009 -0.125009 -0.125009
v -0.125009 0.125009 -0.125009
v -0.125009 0.250019 -0.125009
v 0.000000 -0.375028 -0.125009
v 0.000000 -0.250019 -0.125009
v 0.000000 -0.125009 -0.125009
v 0.000000 0.125009 -0.125009
v 0.000000 0.250019 -0.125009
v 0.000000 0.375028 -0.125009
v 0.125009 -0.250019 -0.125009
v 0.125009 0.125009 -0.125009
v 0.125009 0.250019 -0.125009
v 0.125009 0.375028 -0.125009
v 0.250019 0.125009 -0.125009
v 0.250019 0.250019 -0.125009
v 0.000000 0.125009 -0.250019
v 0.000000 0.250019 -0.250019
v 0.125009 0.125009 -0.250019
v 0.125009 0.250019 -0.250019
v -0.125009 -0.375028 0.000000
v 0.000000 -0.375028 0.000000
v -0.125009 -0.375028 -0.125009
v 0.000000 -0.375028 -0.125009
v 0.000000 -0.250019 0.000000
v 0.125009 -0.250019 0.000000
v 0.000000 -0.250019 -0.125009
v 0.125009 -0.250019 -0.125009
v 0.000000 0.125009 0.125009
v 0.125009 0.125009 0.125009
v -0.125009 0.125009 -0.000000
v 0.000000 0.125009 -0.000000
v 0.125009 0.125009 -0.000000
v 0.250019 0.125009 -0.000000
v -0.125009 0.125009 -0.125009
v 0.000000 0.125009 -0.125009
v 0.125009 0.125009 -0.125009
v 0.250019 0.125009 -0.125009
v 0.000000 0.125009 -0.250019
v 0.125009 0.125009 -0.250019
v -0.125009 -0.125009 0.000000
v 0.000000 -0.125009 0.000000
v -0.125009 -0.125009 -0.125009
v 0.000000 -0.125009 -0.125009
v 0.000000 0.250019 0.125009
v 0.125009 0.250019 0.125009
v -0.125009 0.250019 -0.000000
v 0.000000 0.250019 -0.000000
v 0.125009 0.250019 -0.000000
v 0.250019 0.250019 -0.000000
v -0.125009 0.250019 -0.125009
v 0.000000 0.250019 -0.125009
v 0.125009 0.250019 -0.125009
v 0.250019 0.250019 -0.125009
v 0.000000 0.250019 -0.250019
v 0.125009 0.250019 -0.250019
v 0.000000 0.375028 -0.000000
v 0.125009 0.375028 -0.000000
v 0.000000 0.375028 -0.125009
v 0.125009 0.375028 -0.125009
vn -1.0000 -0.0000 -0.0000
vn 1.0000 -0.0000 -0.0000
vn -0.0000 -0.0000 1.0000
vn -0.0000 -0.0000 -1.0000
vn -0.0000 -1.0000 -0.0000
vn -0.0000 1.0000 -0.0000
vt 0.564453 0.500000
vt 0.568359 0.500000
s 1
usemtl palette.021
f 3/1/1 2/1/1 1/1/1
f 4/1/1 2/1/1 3/1/1
f 7/2/1 6/2/1 5/2/1
f 8/2/1 6/2/1 7/2/1
f 12/1/1 10/1/1 9/1/1
f 13/1/1 10/1/1 12/1/1
f 15/2/1 12/2/1 11/2/1
f 16/2/1 12/2/1 15/2/1
f 17/2/1 14/2/1 13/2/1
f 18/2/1 14/2/1 17/2/1
f 19/2/1 17/2/1 16/2/1
f 20/2/1 17/2/1 19/2/1
f 21/1/2 22/1/2 23/1/2
f 23/1/2 22/1/2 24/1/2
f 25/1/2 26/1/2 28/1/2
f 28/1/2 26/1/2 29/1/2
f 27/2/2 28/2/2 31/2/2
f 31/2/2 28/2/2 32/2/2
f 29/2/2 30/2/2 33/2/2
f 33/2/2 30/2/2 34/2/2
f 32/2/2 33/2/2 35/2/2
f 35/2/2 33/2/2 36/2/2
f 37/2/2 38/2/2 39/2/2
f 39/2/2 38/2/2 40/2/2
f 43/2/3 42/2/3 41/2/3
f 44/2/3 42/2/3 43/2/3
f 49/1/3 46/1/3 45/1/3
f 50/1/3 46/1/3 49/1/3
f 51/1/3 46/1/3 50/1/3
f 52/2/3 48/2/3 47/2/3
f 53/2/3 48/2/3 52/2/3
f 55/1/3 51/1/3 50/1/3
f 55/1/3 52/1/3 51/1/3
f 56/1/3 52/1/3 55/1/3
f 57/2/3 54/2/3 53/2/3
f 58/2/3 54/2/3 57/2/3
f 59/2/3 57/2/3 56/2/3
f 60/2/3 57/2/3 59/2/3
f 61/1/4 62/1/4 65/1/4
f 65/1/4 62/1/4 66/1/4
f 66/1/4 62/1/4 67/1/4
f 63/2/4 64/2/4 68/2/4
f 68/2/4 64/2/4 69/2/4
f 66/1/4 67/1/4 71/1/4
f 67/1/4 68/1/4 71/1/4
f 71/1/4 68/1/4 72/1/4
f 69/2/4 70/2/4 73/2/4
f 73/2/4 70/2/4 74/2/4
f 72/2/4 73/2/4 75/2/4
f 75/2/4 73/2/4 76/2/4
f 77/2/4 78/2/4 79/2/4
f 79/2/4 78/2/4 80/2/4
f 83/1/5 82/1/5 81/1/5
f 84/1/5 82/1/5 83/1/5
f 87/1/5 86/1/5 85/1/5
f 88/1/5 86/1/5 87/1/5
f 92/2/5 90/2/5 89/2/5
f 93/2/5 90/2/5 92/2/5
f 95/2/5 92/2/5 91/2/5
f 96/2/5 92/2/5 95/2/5
f 97/2/5 94/2/5 93/2/5
f 98/2/5 94/2/5 97/2/5
f 99/2/5 97/2/5 96/2/5
f 100/2/5 97/2/5 99/2/5
f 101/1/6 102/1/6 103/1/6
f 103/1/6 102/1/6 104/1/6
f 105/2/6 106/2/6 108/2/6
f 108/2/6 106/2/6 109/2/6
f 107/2/6 108/2/6 111/2/6
f 111/2/6 108/2/6 112/2/6
f 109/2/6 110/2/6 113/2/6
f 113/2/6 110/2/6 114/2/6
f 112/2/6 113/2/6 115/2/6
f 115/2/6 113/2/6 116/2/6
f 117/2/6 118/2/6 119/2/6
f 119/2/6 118/2/6 120/2/6
