# Blender 4.3.2
# www.blender.org
mtllib Gate.mtl
o Untitled.016
v -0.500037 -0.250019 0.000000
v -0.500037 -0.250019 -0.125009
v -0.500037 -0.125009 0.000000
v -0.500037 -0.125009 -0.125009
v -0.500037 0.000000 0.000000
v -0.500037 -0.000000 -0.125009
v -0.500037 0.125009 -0.000000
v -0.500037 0.125009 -0.125009
v -0.375028 -0.125009 0.000000
v -0.375028 -0.125009 -0.125009
v -0.375028 0.000000 0.000000
v -0.375028 -0.000000 -0.125009
v -0.375028 0.125009 -0.000000
v -0.375028 0.125009 -0.125009
v -0.375028 0.250019 -0.000000
v -0.375028 0.250019 -0.125009
v -0.125009 -0.125009 0.000000
v -0.125009 -0.125009 -0.125009
v -0.125009 0.000000 0.000000
v -0.125009 -0.000000 -0.125009
v -0.125009 0.125009 -0.000000
v -0.125009 0.125009 -0.125009
v -0.125009 0.250019 -0.000000
v -0.125009 0.250019 -0.125009
v 0.125009 -0.125009 0.000000
v 0.125009 -0.125009 -0.125009
v 0.125009 0.000000 0.000000
v 0.125009 -0.000000 -0.125009
v 0.125009 0.125009 -0.000000
v 0.125009 0.125009 -0.125009
v 0.125009 0.250019 -0.000000
v 0.125009 0.250019 -0.125009
v 0.375028 -0.125009 0.000000
v 0.375028 -0.125009 -0.125009
v 0.375028 0.000000 0.000000
v 0.375028 -0.000000 -0.125009
v 0.375028 0.125009 -0.000000
v 0.375028 0.125009 -0.125009
v 0.375028 0.250019 -0.000000
v 0.375028 0.250019 -0.125009
v -0.250019 -0.125009 0.000000
v -0.250019 -0.125009 -0.125009
v -0.250019 0.000000 0.000000
v -0.250019 -0.000000 -0.125009
v -0.250019 0.125009 -0.000000
v -0.250019 0.125009 -0.125009
v -0.250019 0.250019 -0.000000
v -0.250019 0.250019 -0.125009
v 0.000000 -0.125009 0.000000
v 0.000000 -0.125009 -0.125009
v 0.000000 0.000000 0.000000
v 0.000000 -0.000000 -0.125009
v 0.000000 0.125009 -0.000000
v 0.000000 0.125009 -0.125009
v 0.000000 0.250019 -0.000000
v 0.000000 0.250019 -0.125009
v 0.250019 -0.125009 0.000000
v 0.250019 -0.125009 -0.125009
v 0.250019 0.000000 0.000000
v 0.250019 -0.000000 -0.125009
v 0.250019 0.125009 -0.000000
v 0.250019 0.125009 -0.125009
v 0.250019 0.250019 -0.000000
v 0.250019 0.250019 -0.125009
v 0.500037 -0.250019 0.000000
v 0.500037 -0.250019 -0.125009
v 0.500037 0.250019 -0.000000
v 0.500037 0.250019 -0.125009
v -0.500037 -0.250019 0.000000
v -0.500037 -0.125009 0.000000
v -0.500037 0.000000 0.000000
v -0.500037 0.125009 -0.000000
v -0.375028 -0.250019 0.000000
v -0.375028 -0.125009 0.000000
v -0.375028 0.000000 0.000000
v -0.375028 0.125009 -0.000000
v -0.375028 0.250019 -0.000000
v -0.250019 -0.125009 0.000000
v -0.250019 0.000000 0.000000
v -0.250019 0.125009 -0.000000
v -0.250019 0.250019 -0.000000
v -0.125009 -0.125009 0.000000
v -0.125009 0.000000 0.000000
v -0.125009 0.125009 -0.000000
v -0.125009 0.250019 -0.000000
v 0.000000 -0.125009 0.000000
v 0.000000 0.000000 0.000000
v 0.000000 0.125009 -0.000000
v 0.000000 0.250019 -0.000000
v 0.125009 -0.125009 0.000000
v 0.125009 0.000000 0.000000
v 0.125009 0.125009 -0.000000
v 0.125009 0.250019 -0.000000
v 0.250019 -0.125009 0.000000
v 0.250019 0.000000 0.000000
v 0.250019 0.125009 -0.000000
v 0.250019 0.250019 -0.000000
v 0.375028 -0.125009 0.000000
v 0.375028 0.000000 0.000000
v 0.375028 0.125009 -0.000000
v 0.375028 0.250019 -0.000000
v 0.500037 -0.250019 0.000000
v 0.500037 0.250019 -0.000000
v -0.500037 -0.250019 -0.125009
v -0.500037 -0.125009 -0.125009
v -0.500037 -0.000000 -0.125009
v -0.500037 0.125009 -0.125009
v -0.375028 -0.250019 -0.125009
v -0.375028 -0.125009 -0.125009
v -0.375028 -0.000000 -0.125009
v -0.375028 0.125009 -0.125009
v -0.375028 0.250019 -0.125009
v -0.250019 -0.125009 -0.125009
v -0.250019 -0.000000 -0.125009
v -0.250019 0.125009 -0.125009
v -0.250019 0.250019 -0.125009
v -0.125009 -0.125009 -0.125009
v -0.125009 -0.000000 -0.125009
v -0.125009 0.125009 -0.125009
v -0.125009 0.250019 -0.125009
v 0.000000 -0.125009 -0.125009
v 0.000000 -0.000000 -0.125009
v 0.000000 0.125009 -0.125009
v 0.000000 0.250019 -0.125009
v 0.125009 -0.125009 -0.125009
v 0.125009 -0.000000 -0.125009
v 0.125009 0.125009 -0.125009
v 0.125009 0.250019 -0.125009
v 0.250019 -0.125009 -0.125009
v 0.250019 -0.000000 -0.125009
v 0.250019 0.125009 -0.125009
v 0.250019 0.250019 -0.125009
v 0.375028 -0.125009 -0.125009
v 0.375028 -0.000000 -0.125009
v 0.375028 0.125009 -0.125009
v 0.375028 0.250019 -0.125009
v 0.500037 -0.250019 -0.125009
v 0.500037 0.250019 -0.125009
v -0.500037 -0.250019 0.000000
v -0.375028 -0.250019 0.000000
v 0.500037 -0.250019 0.000000
v -0.500037 -0.250019 -0.125009
v -0.375028 -0.250019 -0.125009
v 0.500037 -0.250019 -0.125009
v -0.500037 0.000000 0.000000
v -0.375028 0.000000 0.000000
v -0.250019 0.000000 0.000000
v -0.125009 0.000000 0.000000
v 0.000000 0.000000 0.000000
v 0.125009 0.000000 0.000000
v 0.250019 0.000000 0.000000
v 0.375028 0.000000 0.000000
v -0.500037 -0.000000 -0.125009
v -0.375028 -0.000000 -0.125009
v -0.250019 -0.000000 -0.125009
v -0.125009 -0.000000 -0.125009
v 0.000000 -0.000000 -0.125009
v 0.125009 -0.000000 -0.125009
v 0.250019 -0.000000 -0.125009
v 0.375028 -0.000000 -0.125009
v -0.500037 -0.125009 0.000000
v -0.375028 -0.125009 0.000000
v -0.250019 -0.125009 0.000000
v -0.125009 -0.125009 0.000000
v 0.000000 -0.125009 0.000000
v 0.125009 -0.125009 0.000000
v 0.250019 -0.125009 0.000000
v 0.375028 -0.125009 0.000000
v -0.500037 -0.125009 -0.125009
v -0.375028 -0.125009 -0.125009
v -0.250019 -0.125009 -0.125009
v -0.125009 -0.125009 -0.125009
v 0.000000 -0.125009 -0.125009
v 0.125009 -0.125009 -0.125009
v 0.250019 -0.125009 -0.125009
v 0.375028 -0.125009 -0.125009
v -0.500037 0.125009 -0.000000
v -0.375028 0.125009 -0.000000
v -0.250019 0.125009 -0.000000
v -0.125009 0.125009 -0.000000
v 0.000000 0.125009 -0.000000
v 0.125009 0.125009 -0.000000
v 0.250019 0.125009 -0.000000
v 0.375028 0.125009 -0.000000
v -0.500037 0.125009 -0.125009
v -0.375028 0.125009 -0.125009
v -0.250019 0.125009 -0.125009
v -0.125009 0.125009 -0.125009
v 0.000000 0.125009 -0.125009
v 0.125009 0.125009 -0.125009
v 0.250019 0.125009 -0.125009
v 0.375028 0.125009 -0.125009
v -0.375028 0.250019 -0.000000
v -0.250019 0.250019 -0.000000
v -0.125009 0.250019 -0.000000
v 0.000000 0.250019 -0.000000
v 0.125009 0.250019 -0.000000
v 0.250019 0.250019 -0.000000
v 0.375028 0.250019 -0.000000
v 0.500037 0.250019 -0.000000
v -0.375028 0.250019 -0.125009
v -0.250019 0.250019 -0.125009
v -0.125009 0.250019 -0.125009
v 0.000000 0.250019 -0.125009
v 0.125009 0.250019 -0.125009
v 0.250019 0.250019 -0.125009
v 0.375028 0.250019 -0.125009
v 0.500037 0.250019 -0.125009
vn -1.0000 -0.0000 -0.0000
vn 1.0000 -0.0000 -0.0000
vn -0.0000 -0.0000 1.0000
vn -0.0000 -0.0000 -1.0000
vn -0.0000 -1.0000 -0.0000
vn -0.0000 1.0000 -0.0000
vt 0.443359 0.500000
vt 0.439453 0.500000
s 1
usemtl palette.016
f 3/1/1 2/1/1 1/1/1
f 4/1/1 2/1/1 3/1/1
f 7/1/1 6/1/1 5/1/1
f 8/1/1 6/1/1 7/1/1
f 11/2/1 10/2/1 9/2/1
f 12/2/1 10/2/1 11/2/1
f 15/2/1 14/2/1 13/2/1
f 16/2/1 14/2/1 15/2/1
f 19/2/1 18/2/1 17/2/1
f 20/2/1 18/2/1 19/2/1
f 23/2/1 22/2/1 21/2/1
f 24/2/1 22/2/1 23/2/1
f 27/2/1 26/2/1 25/2/1
f 28/2/1 26/2/1 27/2/1
f 31/2/1 30/2/1 29/2/1
f 32/2/1 30/2/1 31/2/1
f 35/2/1 34/2/1 33/2/1
f 36/2/1 34/2/1 35/2/1
f 39/2/1 38/2/1 37/2/1
f 40/2/1 38/2/1 39/2/1
f 41/2/2 42/2/2 43/2/2
f 43/2/2 42/2/2 44/2/2
f 45/2/2 46/2/2 47/2/2
f 47/2/2 46/2/2 48/2/2
f 49/2/2 50/2/2 51/2/2
f 51/2/2 50/2/2 52/2/2
f 53/2/2 54/2/2 55/2/2
f 55/2/2 54/2/2 56/2/2
f 57/2/2 58/2/2 59/2/2
f 59/2/2 58/2/2 60/2/2
f 61/2/2 62/2/2 63/2/2
f 63/2/2 62/2/2 64/2/2
f 65/2/2 66/2/2 67/2/2
f 67/2/2 66/2/2 68/2/2
f 73/1/3 70/1/3 69/1/3
f 74/1/3 70/1/3 73/1/3
f 75/1/3 72/1/3 71/1/3
f 76/1/3 72/1/3 75/1/3
f 78/2/3 74/2/3 73/2/3
f 78/2/3 77/2/3 76/2/3
f 78/2/3 76/2/3 75/2/3
f 78/2/3 75/2/3 74/2/3
f 79/2/3 77/2/3 78/2/3
f 80/2/3 77/2/3 79/2/3
f 81/2/3 77/2/3 80/2/3
f 82/2/3 78/2/3 73/2/3
f 83/2/3 80/2/3 79/2/3
f 84/2/3 80/2/3 83/2/3
f 86/2/3 82/2/3 73/2/3
f 86/2/3 85/2/3 84/2/3
f 86/2/3 84/2/3 83/2/3
f 86/2/3 83/2/3 82/2/3
f 87/2/3 85/2/3 86/2/3
f 88/2/3 85/2/3 87/2/3
f 89/2/3 85/2/3 88/2/3
f 90/2/3 86/2/3 73/2/3
f 91/2/3 88/2/3 87/2/3
f 92/2/3 88/2/3 91/2/3
f 94/2/3 90/2/3 73/2/3
f 94/2/3 93/2/3 92/2/3
f 94/2/3 92/2/3 91/2/3
f 94/2/3 91/2/3 90/2/3
f 95/2/3 93/2/3 94/2/3
f 96/2/3 93/2/3 95/2/3
f 97/2/3 93/2/3 96/2/3
f 98/2/3 94/2/3 73/2/3
f 99/2/3 96/2/3 95/2/3
f 100/2/3 96/2/3 99/2/3
f 102/2/3 98/2/3 73/2/3
f 102/2/3 101/2/3 100/2/3
f 102/2/3 100/2/3 99/2/3
f 102/2/3 99/2/3 98/2/3
f 103/2/3 101/2/3 102/2/3
f 104/1/4 105/1/4 108/1/4
f 108/1/4 105/1/4 109/1/4
f 106/1/4 107/1/4 110/1/4
f 110/1/4 107/1/4 111/1/4
f 108/2/4 109/2/4 113/2/4
f 111/2/4 112/2/4 113/2/4
f 110/2/4 111/2/4 113/2/4
f 109/2/4 110/2/4 113/2/4
f 113/2/4 112/2/4 114/2/4
f 114/2/4 112/2/4 115/2/4
f 115/2/4 112/2/4 116/2/4
f 108/2/4 113/2/4 117/2/4
f 114/2/4 115/2/4 118/2/4
f 118/2/4 115/2/4 119/2/4
f 108/2/4 117/2/4 121/2/4
f 119/2/4 120/2/4 121/2/4
f 118/2/4 119/2/4 121/2/4
f 117/2/4 118/2/4 121/2/4
f 121/2/4 120/2/4 122/2/4
f 122/2/4 120/2/4 123/2/4
f 123/2/4 120/2/4 124/2/4
f 108/2/4 121/2/4 125/2/4
f 122/2/4 123/2/4 126/2/4
f 126/2/4 123/2/4 127/2/4
f 108/2/4 125/2/4 129/2/4
f 127/2/4 128/2/4 129/2/4
f 126/2/4 127/2/4 129/2/4
f 125/2/4 126/2/4 129/2/4
f 129/2/4 128/2/4 130/2/4
f 130/2/4 128/2/4 131/2/4
f 131/2/4 128/2/4 132/2/4
f 108/2/4 129/2/4 133/2/4
f 130/2/4 131/2/4 134/2/4
f 134/2/4 131/2/4 135/2/4
f 108/2/4 133/2/4 137/2/4
f 135/2/4 136/2/4 137/2/4
f 134/2/4 135/2/4 137/2/4
f 133/2/4 134/2/4 137/2/4
f 137/2/4 136/2/4 138/2/4
f 142/1/5 140/1/5 139/1/5
f 143/2/5 141/2/5 140/2/5
f 143/1/5 140/1/5 142/1/5
f 144/2/5 141/2/5 143/2/5
f 153/1/5 146/1/5 145/1/5
f 154/1/5 146/1/5 153/1/5
f 155/2/5 148/2/5 147/2/5
f 156/2/5 148/2/5 155/2/5
f 157/2/5 150/2/5 149/2/5
f 158/2/5 150/2/5 157/2/5
f 159/2/5 152/2/5 151/2/5
f 160/2/5 152/2/5 159/2/5
f 161/1/6 162/1/6 169/1/6
f 169/1/6 162/1/6 170/1/6
f 163/2/6 164/2/6 171/2/6
f 171/2/6 164/2/6 172/2/6
f 165/2/6 166/2/6 173/2/6
f 173/2/6 166/2/6 174/2/6
f 167/2/6 168/2/6 175/2/6
f 175/2/6 168/2/6 176/2/6
f 177/1/6 178/1/6 185/1/6
f 185/1/6 178/1/6 186/1/6
f 179/2/6 180/2/6 187/2/6
f 187/2/6 180/2/6 188/2/6
f 181/2/6 182/2/6 189/2/6
f 189/2/6 182/2/6 190/2/6
f 183/2/6 184/2/6 191/2/6
f 191/2/6 184/2/6 192/2/6
f 193/2/6 194/2/6 201/2/6
f 201/2/6 194/2/6 202/2/6
f 195/2/6 196/2/6 203/2/6
f 203/2/6 196/2/6 204/2/6
f 197/2/6 198/2/6 205/2/6
f 205/2/6 198/2/6 206/2/6
f 199/2/6 200/2/6 207/2/6
f 207/2/6 200/2/6 208/2/6
