# Blender 4.3.2
# www.blender.org
mtllib Hoe.mtl
o Untitled.005
v -0.250019 0.125009 -0.000000
v -0.250019 0.125009 -0.125009
v -0.250019 0.375028 0.125009
v -0.250019 0.375028 -0.000000
v -0.250019 0.500037 0.125009
v -0.250019 0.500037 -0.125009
v 0.000000 -0.375028 0.000000
v 0.000000 -0.375028 -0.125009
v 0.000000 0.125009 -0.000000
v 0.000000 0.125009 -0.125009
v 0.000000 0.250019 -0.000000
v 0.000000 0.250019 -0.125009
v 0.000000 0.375028 0.125009
v 0.000000 0.375028 -0.000000
v 0.000000 0.500037 0.125009
v 0.000000 0.500037 -0.125009
v 0.250019 0.250019 -0.000000
v 0.250019 0.250019 -0.125009
v 0.250019 0.375028 0.125009
v 0.250019 0.375028 -0.000000
v 0.250019 0.500037 0.125009
v 0.250019 0.500037 -0.125009
v -0.125009 0.250019 -0.000000
v -0.125009 0.250019 -0.125009
v -0.125009 0.375028 0.125009
v -0.125009 0.375028 -0.000000
v -0.125009 0.500037 0.125009
v -0.125009 0.500037 -0.125009
v 0.125009 -0.375028 0.000000
v 0.125009 -0.375028 -0.125009
v 0.125009 0.125009 -0.000000
v 0.125009 0.125009 -0.125009
v 0.125009 0.250019 -0.000000
v 0.125009 0.250019 -0.125009
v 0.125009 0.375028 0.125009
v 0.125009 0.375028 -0.000000
v 0.125009 0.500037 0.125009
v 0.125009 0.500037 -0.125009
v 0.375028 0.125009 -0.000000
v 0.375028 0.125009 -0.125009
v 0.375028 0.375028 0.125009
v 0.375028 0.375028 -0.000000
v 0.375028 0.500037 0.125009
v 0.375028 0.500037 -0.125009
v -0.250019 0.375028 0.125009
v -0.250019 0.500037 0.125009
v -0.125009 0.375028 0.125009
v -0.125009 0.500037 0.125009
v 0.000000 0.375028 0.125009
v 0.000000 0.500037 0.125009
v 0.125009 0.375028 0.125009
v 0.125009 0.500037 0.125009
v 0.250019 0.375028 0.125009
v 0.250019 0.500037 0.125009
v 0.375028 0.375028 0.125009
v 0.375028 0.500037 0.125009
v -0.250019 0.125009 -0.000000
v -0.250019 0.375028 -0.000000
v -0.125009 0.250019 -0.000000
v -0.125009 0.375028 -0.000000
v 0.000000 -0.375028 0.000000
v 0.000000 0.125009 -0.000000
v 0.000000 0.250019 -0.000000
v 0.000000 0.375028 -0.000000
v 0.125009 -0.375028 0.000000
v 0.125009 0.125009 -0.000000
v 0.125009 0.250019 -0.000000
v 0.125009 0.375028 -0.000000
v 0.250019 0.250019 -0.000000
v 0.250019 0.375028 -0.000000
v 0.375028 0.125009 -0.000000
v 0.375028 0.375028 -0.000000
v -0.250019 0.125009 -0.125009
v -0.250019 0.500037 -0.125009
v -0.125009 0.250019 -0.125009
v -0.125009 0.500037 -0.125009
v 0.000000 -0.375028 -0.125009
v 0.000000 0.125009 -0.125009
v 0.000000 0.250019 -0.125009
v 0.000000 0.500037 -0.125009
v 0.125009 -0.375028 -0.125009
v 0.125009 0.125009 -0.125009
v 0.125009 0.250019 -0.125009
v 0.125009 0.500037 -0.125009
v 0.250019 0.250019 -0.125009
v 0.250019 0.500037 -0.125009
v 0.375028 0.125009 -0.125009
v 0.375028 0.500037 -0.125009
v 0.000000 -0.375028 0.000000
v 0.125009 -0.375028 0.000000
v 0.000000 -0.375028 -0.125009
v 0.125009 -0.375028 -0.125009
v -0.250019 0.125009 -0.000000
v 0.000000 0.125009 -0.000000
v 0.125009 0.125009 -0.000000
v 0.375028 0.125009 -0.000000
v -0.250019 0.125009 -0.125009
v 0.000000 0.125009 -0.125009
v 0.125009 0.125009 -0.125009
v 0.375028 0.125009 -0.125009
v -0.250019 0.375028 0.125009
v -0.125009 0.375028 0.125009
v 0.000000 0.375028 0.125009
v 0.125009 0.375028 0.125009
v 0.250019 0.375028 0.125009
v 0.375028 0.375028 0.125009
v -0.250019 0.375028 -0.000000
v -0.125009 0.375028 -0.000000
v 0.000000 0.375028 -0.000000
v 0.125009 0.375028 -0.000000
v 0.250019 0.375028 -0.000000
v 0.375028 0.375028 -0.000000
v -0.125009 0.250019 -0.000000
v 0.000000 0.250019 -0.000000
v 0.125009 0.250019 -0.000000
v 0.250019 0.250019 -0.000000
v -0.125009 0.250019 -0.125009
v 0.000000 0.250019 -0.125009
v 0.125009 0.250019 -0.125009
v 0.250019 0.250019 -0.125009
v -0.250019 0.500037 0.125009
v -0.125009 0.500037 0.125009
v 0.000000 0.500037 0.125009
v 0.125009 0.500037 0.125009
v 0.250019 0.500037 0.125009
v 0.375028 0.500037 0.125009
v -0.250019 0.500037 -0.125009
v -0.125009 0.500037 -0.125009
v 0.000000 0.500037 -0.125009
v 0.125009 0.500037 -0.125009
v 0.250019 0.500037 -0.125009
v 0.375028 0.500037 -0.125009
vn -1.0000 -0.0000 -0.0000
vn 1.0000 -0.0000 -0.0000
vn -0.0000 -0.0000 1.0000
vn -0.0000 -0.0000 -1.0000
vn -0.0000 -1.0000 -0.0000
vn -0.0000 1.0000 -0.0000
vt 0.720703 0.500000
vt 0.345703 0.500000
s 1
usemtl palette.005
f 4/1/1 2/1/1 1/1/1
f 5/1/1 4/1/1 3/1/1
f 6/1/1 2/1/1 4/1/1
f 6/1/1 4/1/1 5/1/1
f 9/2/1 8/2/1 7/2/1
f 10/2/1 8/2/1 9/2/1
f 14/1/1 12/1/1 11/1/1
f 15/1/1 14/1/1 13/1/1
f 16/1/1 12/1/1 14/1/1
f 16/1/1 14/1/1 15/1/1
f 20/1/1 18/1/1 17/1/1
f 21/1/1 20/1/1 19/1/1
f 22/1/1 18/1/1 20/1/1
f 22/1/1 20/1/1 21/1/1
f 23/1/2 24/1/2 26/1/2
f 25/1/2 26/1/2 27/1/2
f 26/1/2 24/1/2 28/1/2
f 27/1/2 26/1/2 28/1/2
f 29/2/2 30/2/2 31/2/2
f 31/2/2 30/2/2 32/2/2
f 33/1/2 34/1/2 36/1/2
f 35/1/2 36/1/2 37/1/2
f 36/1/2 34/1/2 38/1/2
f 37/1/2 36/1/2 38/1/2
f 39/1/2 40/1/2 42/1/2
f 41/1/2 42/1/2 43/1/2
f 42/1/2 40/1/2 44/1/2
f 43/1/2 42/1/2 44/1/2
f 47/1/3 46/1/3 45/1/3
f 48/1/3 46/1/3 47/1/3
f 51/1/3 50/1/3 49/1/3
f 52/1/3 50/1/3 51/1/3
f 55/1/3 54/1/3 53/1/3
f 56/1/3 54/1/3 55/1/3
f 59/1/3 58/1/3 57/1/3
f 60/1/3 58/1/3 59/1/3
f 62/1/3 59/1/3 57/1/3
f 63/1/3 59/1/3 62/1/3
f 65/2/3 62/2/3 61/2/3
f 66/1/3 64/1/3 63/1/3
f 66/2/3 62/2/3 65/2/3
f 66/1/3 63/1/3 62/1/3
f 67/1/3 64/1/3 66/1/3
f 68/1/3 64/1/3 67/1/3
f 69/1/3 67/1/3 66/1/3
f 71/1/3 69/1/3 66/1/3
f 71/1/3 70/1/3 69/1/3
f 72/1/3 70/1/3 71/1/3
f 73/1/4 74/1/4 75/1/4
f 75/1/4 74/1/4 76/1/4
f 73/1/4 75/1/4 78/1/4
f 78/1/4 75/1/4 79/1/4
f 77/2/4 78/2/4 81/2/4
f 79/1/4 80/1/4 82/1/4
f 81/2/4 78/2/4 82/2/4
f 78/1/4 79/1/4 82/1/4
f 82/1/4 80/1/4 83/1/4
f 83/1/4 80/1/4 84/1/4
f 82/1/4 83/1/4 85/1/4
f 82/1/4 85/1/4 87/1/4
f 85/1/4 86/1/4 87/1/4
f 87/1/4 86/1/4 88/1/4
f 91/2/5 90/2/5 89/2/5
f 92/2/5 90/2/5 91/2/5
f 97/1/5 94/1/5 93/1/5
f 98/1/5 94/1/5 97/1/5
f 99/1/5 96/1/5 95/1/5
f 100/1/5 96/1/5 99/1/5
f 107/1/5 102/1/5 101/1/5
f 108/1/5 102/1/5 107/1/5
f 109/1/5 104/1/5 103/1/5
f 110/1/5 104/1/5 109/1/5
f 111/1/5 106/1/5 105/1/5
f 112/1/5 106/1/5 111/1/5
f 113/1/6 114/1/6 117/1/6
f 117/1/6 114/1/6 118/1/6
f 115/1/6 116/1/6 119/1/6
f 119/1/6 116/1/6 120/1/6
f 121/1/6 122/1/6 127/1/6
f 127/1/6 122/1/6 128/1/6
f 123/1/6 124/1/6 129/1/6
f 129/1/6 124/1/6 130/1/6
f 125/1/6 126/1/6 131/1/6
f 131/1/6 126/1/6 132/1/6
