# Blender 4.3.2
# www.blender.org
mtllib Mage.mtl
o Untitled.001
v -0.375000 -0.375000 0.375000
v -0.375000 -0.375000 -0.375000
v -0.375000 -0.125000 0.375000
v -0.375000 -0.125000 0.125000
v -0.375000 -0.125000 -0.375000
v -0.375000 0.000000 0.250000
v -0.375000 0.000000 0.125000
v -0.375000 0.125000 0.375000
v -0.375000 0.125000 0.250000
v -0.375000 0.375000 0.375000
v -0.375000 0.375000 -0.375000
v 0.375000 -0.375000 0.375000
v 0.375000 -0.375000 -0.375000
v 0.375000 -0.125000 0.375000
v 0.375000 -0.125000 0.125000
v 0.375000 -0.125000 -0.375000
v 0.375000 0.000000 0.250000
v 0.375000 0.000000 0.125000
v 0.375000 0.125000 0.375000
v 0.375000 0.125000 0.250000
v 0.375000 0.375000 0.375000
v 0.375000 0.375000 -0.375000
v -0.375000 -0.375000 0.375000
v -0.375000 -0.125000 0.375000
v -0.375000 0.125000 0.375000
v -0.375000 0.375000 0.375000
v -0.250000 -0.250000 0.375000
v -0.250000 -0.125000 0.375000
v -0.250000 0.000000 0.375000
v -0.250000 0.125000 0.375000
v -0.125000 -0.375000 0.375000
v -0.125000 -0.250000 0.375000
v -0.125000 -0.125000 0.375000
v -0.125000 0.000000 0.375000
v -0.125000 0.125000 0.375000
v -0.125000 0.250000 0.375000
v 0.125000 -0.375000 0.375000
v 0.125000 -0.250000 0.375000
v 0.125000 -0.125000 0.375000
v 0.125000 0.000000 0.375000
v 0.125000 0.125000 0.375000
v 0.125000 0.250000 0.375000
v 0.250000 -0.250000 0.375000
v 0.250000 -0.125000 0.375000
v 0.250000 0.000000 0.375000
v 0.250000 0.125000 0.375000
v 0.375000 -0.375000 0.375000
v 0.375000 -0.125000 0.375000
v 0.375000 0.125000 0.375000
v 0.375000 0.375000 0.375000
v -0.375000 -0.375000 -0.375000
v -0.375000 -0.125000 -0.375000
v -0.375000 0.375000 -0.375000
v 0.375000 -0.375000 -0.375000
v 0.375000 -0.125000 -0.375000
v 0.375000 0.375000 -0.375000
v -0.375000 -0.375000 0.375000
v -0.125000 -0.375000 0.375000
v 0.125000 -0.375000 0.375000
v 0.375000 -0.375000 0.375000
v -0.125000 -0.375000 0.250000
v 0.125000 -0.375000 0.250000
v -0.375000 -0.375000 -0.375000
v 0.375000 -0.375000 -0.375000
v -0.375000 0.375000 0.375000
v 0.375000 0.375000 0.375000
v -0.375000 0.375000 -0.375000
v 0.375000 0.375000 -0.375000
vn -1.0000 -0.0000 -0.0000
vn 1.0000 -0.0000 -0.0000
vn -0.0000 -0.0000 1.0000
vn -0.0000 -0.0000 -1.0000
vn -0.0000 -1.0000 -0.0000
vn -0.0000 1.0000 -0.0000
vt 0.224609 0.500000
vt 0.255859 0.500000
vt 0.220703 0.500000
vt 0.251953 0.500000
s 1
usemtl palette.016
f 3/1/1 2/1/1 1/1/1
f 4/1/1 2/1/1 3/1/1
f 5/1/1 2/1/1 4/1/1
f 6/2/1 4/2/1 3/2/1
f 7/3/1 5/3/1 4/3/1
f 7/2/1 4/2/1 6/2/1
f 8/2/1 6/2/1 3/2/1
f 9/3/1 7/3/1 6/3/1
f 9/2/1 6/2/1 8/2/1
f 10/3/1 9/3/1 8/3/1
f 11/3/1 5/3/1 7/3/1
f 11/3/1 9/3/1 10/3/1
f 11/3/1 7/3/1 9/3/1
f 12/1/2 13/1/2 14/1/2
f 14/1/2 13/1/2 15/1/2
f 15/1/2 13/1/2 16/1/2
f 14/2/2 15/2/2 17/2/2
f 15/3/2 16/3/2 18/3/2
f 17/2/2 15/2/2 18/2/2
f 14/2/2 17/2/2 19/2/2
f 17/3/2 18/3/2 20/3/2
f 19/2/2 17/2/2 20/2/2
f 19/3/2 20/3/2 21/3/2
f 18/3/2 16/3/2 22/3/2
f 21/3/2 20/3/2 22/3/2
f 20/3/2 18/3/2 22/3/2
f 27/1/3 24/1/3 23/1/3
f 28/2/3 25/2/3 24/2/3
f 28/1/3 24/1/3 27/1/3
f 29/2/3 25/2/3 28/2/3
f 30/3/3 26/3/3 25/3/3
f 30/2/3 25/2/3 29/2/3
f 31/1/3 27/1/3 23/1/3
f 32/3/3 29/3/3 28/3/3
f 32/1/3 27/1/3 31/1/3
f 32/3/3 28/3/3 27/3/3
f 33/3/3 29/3/3 32/3/3
f 34/4/3 30/4/3 29/4/3
f 34/3/3 29/3/3 33/3/3
f 35/3/3 26/3/3 30/3/3
f 35/4/3 30/4/3 34/4/3
f 36/3/3 26/3/3 35/3/3
f 37/3/3 32/3/3 31/3/3
f 38/4/3 33/4/3 32/4/3
f 38/3/3 32/3/3 37/3/3
f 39/3/3 34/3/3 33/3/3
f 39/4/3 33/4/3 38/4/3
f 40/2/3 35/2/3 34/2/3
f 40/3/3 34/3/3 39/3/3
f 40/2/3 36/2/3 35/2/3
f 41/2/3 36/2/3 40/2/3
f 42/3/3 26/3/3 36/3/3
f 42/2/3 36/2/3 41/2/3
f 43/1/3 38/1/3 37/1/3
f 43/3/3 39/3/3 38/3/3
f 43/3/3 40/3/3 39/3/3
f 44/3/3 40/3/3 43/3/3
f 45/4/3 41/4/3 40/4/3
f 45/3/3 40/3/3 44/3/3
f 46/3/3 42/3/3 41/3/3
f 46/4/3 41/4/3 45/4/3
f 47/1/3 44/1/3 43/1/3
f 47/1/3 43/1/3 37/1/3
f 48/2/3 45/2/3 44/2/3
f 48/1/3 44/1/3 47/1/3
f 48/2/3 46/2/3 45/2/3
f 49/3/3 42/3/3 46/3/3
f 49/2/3 46/2/3 48/2/3
f 50/3/3 26/3/3 42/3/3
f 50/3/3 42/3/3 49/3/3
f 51/1/4 52/1/4 54/1/4
f 52/3/4 53/3/4 55/3/4
f 54/1/4 52/1/4 55/1/4
f 55/3/4 53/3/4 56/3/4
f 61/1/5 58/1/5 57/1/5
f 61/3/5 59/3/5 58/3/5
f 62/1/5 60/1/5 59/1/5
f 62/3/5 59/3/5 61/3/5
f 63/1/5 61/1/5 57/1/5
f 63/1/5 62/1/5 61/1/5
f 64/1/5 60/1/5 62/1/5
f 64/1/5 62/1/5 63/1/5
f 65/3/6 66/3/6 67/3/6
f 67/3/6 66/3/6 68/3/6
