# Blender 4.3.2
# www.blender.org
mtllib Merchant.mtl
o Untitled.007
v -0.375028 -0.375028 0.375028
v -0.375028 -0.375028 -0.375028
v -0.375028 -0.250019 0.375028
v -0.375028 -0.250019 0.250019
v -0.375028 -0.125009 0.250019
v -0.375028 -0.125009 -0.375028
v -0.375028 0.375028 0.375028
v -0.375028 0.375028 -0.375028
v 0.375028 -0.375028 0.375028
v 0.375028 -0.375028 -0.375028
v 0.375028 -0.250019 0.375028
v 0.375028 -0.250019 0.250019
v 0.375028 -0.125009 0.250019
v 0.375028 -0.125009 -0.375028
v 0.375028 0.375028 0.375028
v 0.375028 0.375028 -0.375028
v -0.375028 -0.375028 0.375028
v -0.375028 -0.250019 0.375028
v -0.375028 0.375028 0.375028
v -0.250019 -0.250019 0.375028
v -0.250019 -0.125009 0.375028
v -0.250019 0.000000 0.375028
v -0.250019 0.125009 0.375028
v -0.125009 0.000000 0.375028
v -0.125009 0.125009 0.375028
v -0.125009 0.250019 0.375028
v 0.125009 0.000000 0.375028
v 0.125009 0.125009 0.375028
v 0.125009 0.250019 0.375028
v 0.250019 -0.250019 0.375028
v 0.250019 -0.125009 0.375028
v 0.250019 0.000000 0.375028
v 0.250019 0.125009 0.375028
v 0.375028 -0.375028 0.375028
v 0.375028 -0.250019 0.375028
v 0.375028 0.375028 0.375028
v -0.375028 -0.375028 -0.375028
v -0.375028 -0.125009 -0.375028
v -0.375028 0.375028 -0.375028
v -0.250019 -0.250019 -0.375028
v -0.250019 -0.125009 -0.375028
v 0.250019 -0.250019 -0.375028
v 0.250019 -0.125009 -0.375028
v 0.375028 -0.375028 -0.375028
v 0.375028 -0.125009 -0.375028
v 0.375028 0.375028 -0.375028
v -0.375028 -0.375028 0.375028
v 0.375028 -0.375028 0.375028
v -0.375028 -0.375028 -0.375028
v 0.375028 -0.375028 -0.375028
v -0.375028 0.375028 0.375028
v 0.375028 0.375028 0.375028
v -0.375028 0.375028 -0.375028
v 0.375028 0.375028 -0.375028
vn -1.0000 -0.0000 -0.0000
vn 1.0000 -0.0000 -0.0000
vn -0.0000 -0.0000 1.0000
vn -0.0000 -0.0000 -1.0000
vn -0.0000 -1.0000 -0.0000
vn -0.0000 1.0000 -0.0000
vt 0.158203 0.500000
vt 0.162109 0.500000
vt 0.255859 0.500000
vt 0.251953 0.500000
s 1
usemtl palette.007
f 3/1/1 2/1/1 1/1/1
f 4/1/1 2/1/1 3/1/1
f 5/2/1 4/2/1 3/2/1
f 5/1/1 2/1/1 4/1/1
f 6/1/1 2/1/1 5/1/1
f 7/2/1 5/2/1 3/2/1
f 7/2/1 6/2/1 5/2/1
f 8/2/1 6/2/1 7/2/1
f 9/1/2 10/1/2 11/1/2
f 11/1/2 10/1/2 12/1/2
f 11/2/2 12/2/2 13/2/2
f 12/1/2 10/1/2 13/1/2
f 13/1/2 10/1/2 14/1/2
f 11/2/2 13/2/2 15/2/2
f 13/2/2 14/2/2 15/2/2
f 15/2/2 14/2/2 16/2/2
f 20/1/3 18/1/3 17/1/3
f 20/2/3 19/2/3 18/2/3
f 21/2/3 19/2/3 20/2/3
f 22/2/3 19/2/3 21/2/3
f 23/2/3 19/2/3 22/2/3
f 24/3/3 22/3/3 21/3/3
f 24/4/3 23/4/3 22/4/3
f 25/2/3 19/2/3 23/2/3
f 25/4/3 23/4/3 24/4/3
f 26/2/3 19/2/3 25/2/3
f 27/3/3 24/3/3 21/3/3
f 27/3/3 25/3/3 24/3/3
f 27/3/3 26/3/3 25/3/3
f 28/3/3 26/3/3 27/3/3
f 29/2/3 19/2/3 26/2/3
f 29/3/3 26/3/3 28/3/3
f 30/1/3 20/1/3 17/1/3
f 30/1/3 21/1/3 20/1/3
f 31/3/3 27/3/3 21/3/3
f 31/1/3 21/1/3 30/1/3
f 32/4/3 28/4/3 27/4/3
f 32/3/3 27/3/3 31/3/3
f 33/2/3 29/2/3 28/2/3
f 33/4/3 28/4/3 32/4/3
f 34/1/3 30/1/3 17/1/3
f 35/2/3 32/2/3 31/2/3
f 35/1/3 30/1/3 34/1/3
f 35/2/3 31/2/3 30/2/3
f 35/2/3 33/2/3 32/2/3
f 36/2/3 19/2/3 29/2/3
f 36/2/3 33/2/3 35/2/3
f 36/2/3 29/2/3 33/2/3
f 37/1/4 38/1/4 40/1/4
f 38/2/4 39/2/4 41/2/4
f 40/1/4 38/1/4 41/1/4
f 37/1/4 40/1/4 42/1/4
f 40/2/4 41/2/4 42/2/4
f 41/2/4 39/2/4 43/2/4
f 42/2/4 41/2/4 43/2/4
f 37/1/4 42/1/4 44/1/4
f 42/1/4 43/1/4 44/1/4
f 43/2/4 39/2/4 45/2/4
f 44/1/4 43/1/4 45/1/4
f 45/2/4 39/2/4 46/2/4
f 49/1/5 48/1/5 47/1/5
f 50/1/5 48/1/5 49/1/5
f 51/2/6 52/2/6 53/2/6
f 53/2/6 52/2/6 54/2/6
