# Blender 4.3.2
# www.blender.org
mtllib Warrior.mtl
o Untitled.010
v -0.375028 -0.375028 0.375028
v -0.375028 -0.375028 -0.375028
v -0.375028 -0.125009 0.375028
v -0.375028 -0.125009 0.125009
v -0.375028 -0.125009 -0.375028
v -0.375028 0.000000 0.250019
v -0.375028 0.000000 0.125009
v -0.375028 0.250019 0.375028
v -0.375028 0.250019 0.250019
v -0.375028 0.250019 -0.375028
v -0.375028 0.375028 0.375028
v -0.375028 0.375028 -0.375028
v 0.375028 -0.375028 0.375028
v 0.375028 -0.375028 -0.375028
v 0.375028 -0.125009 0.375028
v 0.375028 -0.125009 0.125009
v 0.375028 -0.125009 -0.375028
v 0.375028 0.000000 0.250019
v 0.375028 0.000000 0.125009
v 0.375028 0.250019 0.375028
v 0.375028 0.250019 0.250019
v 0.375028 0.250019 -0.375028
v 0.375028 0.375028 0.375028
v 0.375028 0.375028 -0.375028
v -0.375028 -0.375028 0.375028
v -0.375028 -0.125009 0.375028
v -0.375028 0.250019 0.375028
v -0.375028 0.375028 0.375028
v -0.250019 -0.250019 0.375028
v -0.250019 -0.125009 0.375028
v -0.250019 0.000000 0.375028
v -0.250019 0.125009 0.375028
v -0.250019 0.250019 0.375028
v -0.125009 -0.250019 0.375028
v -0.125009 -0.125009 0.375028
v -0.125009 0.000000 0.375028
v -0.125009 0.125009 0.375028
v -0.125009 0.250019 0.375028
v 0.125009 -0.250019 0.375028
v 0.125009 -0.125009 0.375028
v 0.125009 0.000000 0.375028
v 0.125009 0.125009 0.375028
v 0.125009 0.250019 0.375028
v 0.250019 -0.250019 0.375028
v 0.250019 -0.125009 0.375028
v 0.250019 0.000000 0.375028
v 0.250019 0.125009 0.375028
v 0.250019 0.250019 0.375028
v 0.375028 -0.375028 0.375028
v 0.375028 -0.125009 0.375028
v 0.375028 0.250019 0.375028
v 0.375028 0.375028 0.375028
v -0.375028 -0.375028 -0.375028
v -0.375028 -0.125009 -0.375028
v -0.375028 0.250019 -0.375028
v -0.375028 0.375028 -0.375028
v 0.375028 -0.375028 -0.375028
v 0.375028 -0.125009 -0.375028
v 0.375028 0.250019 -0.375028
v 0.375028 0.375028 -0.375028
v -0.375028 -0.375028 0.375028
v 0.375028 -0.375028 0.375028
v -0.375028 -0.375028 -0.375028
v 0.375028 -0.375028 -0.375028
v -0.375028 0.375028 0.375028
v 0.375028 0.375028 0.375028
v -0.375028 0.375028 -0.375028
v 0.375028 0.375028 -0.375028
vn -1.0000 -0.0000 -0.0000
vn 1.0000 -0.0000 -0.0000
vn -0.0000 -0.0000 1.0000
vn -0.0000 -0.0000 -1.0000
vn -0.0000 -1.0000 -0.0000
vn -0.0000 1.0000 -0.0000
vt 0.259766 0.500000
vt 0.255859 0.500000
vt 0.263672 0.500000
vt 0.251953 0.500000
s 1
usemtl palette.010
f 3/1/1 2/1/1 1/1/1
f 4/1/1 2/1/1 3/1/1
f 5/1/1 2/1/1 4/1/1
f 6/2/1 4/2/1 3/2/1
f 7/3/1 5/3/1 4/3/1
f 7/2/1 4/2/1 6/2/1
f 8/2/1 6/2/1 3/2/1
f 9/3/1 7/3/1 6/3/1
f 9/2/1 6/2/1 8/2/1
f 10/3/1 5/3/1 7/3/1
f 10/3/1 7/3/1 9/3/1
f 11/1/1 9/1/1 8/1/1
f 11/1/1 10/1/1 9/1/1
f 12/1/1 10/1/1 11/1/1
f 13/1/2 14/1/2 15/1/2
f 15/1/2 14/1/2 16/1/2
f 16/1/2 14/1/2 17/1/2
f 15/2/2 16/2/2 18/2/2
f 16/3/2 17/3/2 19/3/2
f 18/2/2 16/2/2 19/2/2
f 15/2/2 18/2/2 20/2/2
f 18/3/2 19/3/2 21/3/2
f 20/2/2 18/2/2 21/2/2
f 19/3/2 17/3/2 22/3/2
f 21/3/2 19/3/2 22/3/2
f 20/1/2 21/1/2 23/1/2
f 21/1/2 22/1/2 23/1/2
f 23/1/2 22/1/2 24/1/2
f 29/1/3 26/1/3 25/1/3
f 30/2/3 27/2/3 26/2/3
f 30/1/3 26/1/3 29/1/3
f 31/2/3 27/2/3 30/2/3
f 32/2/3 27/2/3 31/2/3
f 33/1/3 28/1/3 27/1/3
f 33/2/3 27/2/3 32/2/3
f 34/1/3 29/1/3 25/1/3
f 34/3/3 30/3/3 29/3/3
f 34/3/3 31/3/3 30/3/3
f 35/3/3 31/3/3 34/3/3
f 36/4/3 32/4/3 31/4/3
f 36/3/3 31/3/3 35/3/3
f 37/3/3 33/3/3 32/3/3
f 37/4/3 32/4/3 36/4/3
f 38/1/3 28/1/3 33/1/3
f 38/3/3 33/3/3 37/3/3
f 39/1/3 35/1/3 34/1/3
f 39/1/3 34/1/3 25/1/3
f 40/3/3 36/3/3 35/3/3
f 40/1/3 35/1/3 39/1/3
f 41/2/3 37/2/3 36/2/3
f 41/3/3 36/3/3 40/3/3
f 41/2/3 38/2/3 37/2/3
f 42/2/3 38/2/3 41/2/3
f 43/1/3 28/1/3 38/1/3
f 43/2/3 38/2/3 42/2/3
f 44/3/3 40/3/3 39/3/3
f 44/1/3 39/1/3 25/1/3
f 44/3/3 41/3/3 40/3/3
f 45/3/3 41/3/3 44/3/3
f 46/4/3 42/4/3 41/4/3
f 46/3/3 41/3/3 45/3/3
f 47/3/3 43/3/3 42/3/3
f 47/4/3 42/4/3 46/4/3
f 48/1/3 28/1/3 43/1/3
f 48/3/3 43/3/3 47/3/3
f 49/1/3 45/1/3 44/1/3
f 49/1/3 44/1/3 25/1/3
f 50/2/3 47/2/3 46/2/3
f 50/1/3 45/1/3 49/1/3
f 50/2/3 46/2/3 45/2/3
f 50/2/3 48/2/3 47/2/3
f 51/1/3 28/1/3 48/1/3
f 51/2/3 48/2/3 50/2/3
f 52/1/3 28/1/3 51/1/3
f 53/1/4 54/1/4 57/1/4
f 54/3/4 55/3/4 58/3/4
f 57/1/4 54/1/4 58/1/4
f 55/1/4 56/1/4 59/1/4
f 58/3/4 55/3/4 59/3/4
f 59/1/4 56/1/4 60/1/4
f 63/1/5 62/1/5 61/1/5
f 64/1/5 62/1/5 63/1/5
f 65/1/6 66/1/6 67/1/6
f 67/1/6 66/1/6 68/1/6
