# Blender 4.3.2
# www.blender.org
mtllib Campfire.mtl
o Untitled.013
v 0.000000 0.166668 0.833334
v 0.000000 0.166668 0.666666
v 0.000000 0.166668 0.333334
v 0.000000 0.166668 0.166666
v 0.000000 0.333334 0.833334
v 0.000000 0.333334 0.666666
v 0.000000 0.333334 0.333334
v 0.000000 0.333334 0.166666
v 0.000000 0.500000 0.666666
v 0.000000 0.500000 0.333334
v 0.000000 0.666668 0.500000
v 0.000000 0.666668 0.333334
v 0.000000 0.833334 0.666666
v 0.000000 0.833334 0.500000
v 0.166666 0.000000 1.000000
v 0.166666 0.000000 0.000000
v 0.166666 0.166668 1.000000
v 0.166666 0.166668 0.833334
v 0.166666 0.166668 0.666666
v 0.166666 0.166668 0.500000
v 0.166666 0.166668 0.333334
v 0.166666 0.166668 0.166666
v 0.166666 0.166668 0.000000
v 0.166666 0.333334 0.833334
v 0.166666 0.333334 0.666666
v 0.166666 0.333334 0.500000
v 0.166666 0.333334 0.333334
v 0.166666 0.500000 1.000000
v 0.166666 0.500000 0.833334
v 0.166666 0.500000 0.666666
v 0.166666 0.500000 0.333334
v 0.166666 0.666668 1.000000
v 0.166666 0.666668 0.666666
v 0.333334 0.166668 0.666666
v 0.333334 0.166668 0.500000
v 0.333334 0.333334 1.000000
v 0.333334 0.333334 0.833334
v 0.333334 0.333334 0.666666
v 0.333334 0.333334 0.500000
v 0.333334 0.500000 1.000000
v 0.333334 0.500000 0.833334
v 0.333334 0.666668 0.666666
v 0.333334 0.666668 0.500000
v 0.333334 0.833334 0.666666
v 0.333334 0.833334 0.500000
v 0.500000 0.166668 1.000000
v 0.500000 0.166668 0.833334
v 0.500000 0.333334 1.000000
v 0.500000 0.333334 0.833334
v 0.500000 0.333334 0.666666
v 0.500000 0.333334 0.500000
v 0.500000 0.333334 0.333334
v 0.500000 0.333334 0.166666
v 0.500000 0.500000 1.000000
v 0.500000 0.500000 0.666666
v 0.500000 0.500000 0.500000
v 0.500000 0.666668 0.833334
v 0.500000 0.666668 0.666666
v 0.500000 0.666668 0.333334
v 0.500000 0.666668 0.166666
v 0.500000 0.833334 1.000000
v 0.500000 0.833334 0.833334
v 0.666666 0.000000 1.000000
v 0.666666 0.000000 0.000000
v 0.666666 0.166668 1.000000
v 0.666666 0.166668 0.833334
v 0.666666 0.166668 0.666666
v 0.666666 0.166668 0.333334
v 0.666666 0.166668 0.166666
v 0.666666 0.166668 0.000000
v 0.666666 0.333334 0.166666
v 0.666666 0.500000 0.166666
v 0.666666 0.500000 0.000000
v 0.666666 0.666668 0.333334
v 0.666666 0.666668 0.166666
v 0.666666 0.833334 0.333334
v 0.666666 0.833334 0.166666
v 0.166666 0.666668 0.666666
v 0.166666 0.666668 0.500000
v 0.166666 0.833334 0.666666
v 0.166666 0.833334 0.500000
v 0.333334 0.000000 1.000000
v 0.333334 0.000000 0.833334
v 0.333334 0.000000 0.666666
v 0.333334 0.000000 0.500000
v 0.333334 0.000000 0.333334
v 0.333334 0.000000 0.000000
v 0.333334 0.166668 1.000000
v 0.333334 0.166668 0.833334
v 0.333334 0.166668 0.666666
v 0.333334 0.166668 0.500000
v 0.333334 0.166668 0.333334
v 0.333334 0.166668 0.166666
v 0.333334 0.166668 0.000000
v 0.333334 0.333334 0.666666
v 0.333334 0.333334 0.500000
v 0.333334 0.500000 1.000000
v 0.333334 0.500000 0.666666
v 0.333334 0.500000 0.500000
v 0.333334 0.666668 1.000000
v 0.333334 0.666668 0.666666
v 0.500000 0.000000 0.833334
v 0.500000 0.000000 0.666666
v 0.500000 0.000000 0.500000
v 0.500000 0.000000 0.333334
v 0.500000 0.166668 0.833334
v 0.500000 0.166668 0.666666
v 0.500000 0.166668 0.500000
v 0.500000 0.166668 0.333334
v 0.500000 0.333334 1.000000
v 0.500000 0.333334 0.833334
v 0.500000 0.500000 1.000000
v 0.500000 0.500000 0.833334
v 0.500000 0.500000 0.666666
v 0.500000 0.500000 0.500000
v 0.500000 0.666668 0.666666
v 0.500000 0.666668 0.500000
v 0.500000 0.833334 0.666666
v 0.500000 0.833334 0.500000
v 0.666666 0.166668 1.000000
v 0.666666 0.166668 0.833334
v 0.666666 0.166668 0.666666
v 0.666666 0.166668 0.500000
v 0.666666 0.333334 1.000000
v 0.666666 0.333334 0.833334
v 0.666666 0.333334 0.666666
v 0.666666 0.500000 1.000000
v 0.666666 0.500000 0.833334
v 0.666666 0.500000 0.666666
v 0.666666 0.500000 0.500000
v 0.666666 0.666668 0.833334
v 0.666666 0.666668 0.666666
v 0.666666 0.833334 1.000000
v 0.666666 0.833334 0.833334
v 0.833334 0.000000 1.000000
v 0.833334 0.000000 0.666666
v 0.833334 0.000000 0.500000
v 0.833334 0.000000 0.000000
v 0.833334 0.166668 1.000000
v 0.833334 0.166668 0.833334
v 0.833334 0.166668 0.666666
v 0.833334 0.166668 0.500000
v 0.833334 0.166668 0.333334
v 0.833334 0.166668 0.166666
v 0.833334 0.166668 0.000000
v 0.833334 0.333334 0.333334
v 0.833334 0.333334 0.166666
v 0.833334 0.500000 0.333334
v 0.833334 0.500000 0.166666
v 0.833334 0.500000 0.000000
v 0.833334 0.666668 0.500000
v 0.833334 0.666668 0.333334
v 0.833334 0.666668 0.166666
v 0.833334 0.833334 0.333334
v 0.833334 0.833334 0.166666
v 1.000000 0.000000 0.666666
v 1.000000 0.000000 0.500000
v 1.000000 0.166668 0.833334
v 1.000000 0.166668 0.666666
v 1.000000 0.166668 0.500000
v 1.000000 0.166668 0.333334
v 1.000000 0.166668 0.166666
v 1.000000 0.333334 0.833334
v 1.000000 0.333334 0.666666
v 1.000000 0.333334 0.333334
v 1.000000 0.333334 0.166666
v 1.000000 0.500000 0.333334
v 1.000000 0.500000 0.166666
v 1.000000 0.666668 0.333334
v 1.000000 0.666668 0.166666
v 0.166666 0.000000 1.000000
v 0.166666 0.166668 1.000000
v 0.166666 0.500000 1.000000
v 0.166666 0.666668 1.000000
v 0.333334 0.000000 1.000000
v 0.333334 0.166668 1.000000
v 0.333334 0.333334 1.000000
v 0.333334 0.500000 1.000000
v 0.333334 0.666668 1.000000
v 0.500000 0.166668 1.000000
v 0.500000 0.333334 1.000000
v 0.500000 0.500000 1.000000
v 0.500000 0.833334 1.000000
v 0.666666 0.000000 1.000000
v 0.666666 0.166668 1.000000
v 0.666666 0.333334 1.000000
v 0.666666 0.500000 1.000000
v 0.666666 0.833334 1.000000
v 0.833334 0.000000 1.000000
v 0.833334 0.166668 1.000000
v 0.000000 0.166668 0.833334
v 0.000000 0.333334 0.833334
v 0.166666 0.166668 0.833334
v 0.166666 0.333334 0.833334
v 0.166666 0.500000 0.833334
v 0.333334 0.000000 0.833334
v 0.333334 0.166668 0.833334
v 0.333334 0.333334 0.833334
v 0.333334 0.500000 0.833334
v 0.500000 0.000000 0.833334
v 0.500000 0.166668 0.833334
v 0.500000 0.333334 0.833334
v 0.500000 0.500000 0.833334
v 0.666666 0.166668 0.833334
v 0.666666 0.333334 0.833334
v 0.666666 0.500000 0.833334
v 0.833334 0.166668 0.833334
v 1.000000 0.166668 0.833334
v 1.000000 0.333334 0.833334
v 0.000000 0.500000 0.666666
v 0.000000 0.833334 0.666666
v 0.166666 0.500000 0.666666
v 0.166666 0.666668 0.666666
v 0.166666 0.833334 0.666666
v 0.333334 0.500000 0.666666
v 0.333334 0.666668 0.666666
v 0.333334 0.833334 0.666666
v 0.500000 0.500000 0.666666
v 0.500000 0.666668 0.666666
v 0.500000 0.833334 0.666666
v 0.833334 0.000000 0.666666
v 0.833334 0.166668 0.666666
v 1.000000 0.000000 0.666666
v 1.000000 0.166668 0.666666
v 0.166666 0.166668 0.500000
v 0.166666 0.333334 0.500000
v 0.333334 0.000000 0.500000
v 0.333334 0.166668 0.500000
v 0.333334 0.333334 0.500000
v 0.333334 0.500000 0.500000
v 0.500000 0.000000 0.500000
v 0.500000 0.166668 0.500000
v 0.500000 0.333334 0.500000
v 0.500000 0.500000 0.500000
v 0.500000 0.666668 0.500000
v 0.666666 0.166668 0.500000
v 0.666666 0.500000 0.500000
v 0.833334 0.166668 0.500000
v 0.833334 0.666668 0.500000
v 0.000000 0.166668 0.333334
v 0.000000 0.333334 0.333334
v 0.166666 0.166668 0.333334
v 0.166666 0.333334 0.333334
v 0.666666 0.666668 0.333334
v 0.666666 0.833334 0.333334
v 0.833334 0.166668 0.333334
v 0.833334 0.333334 0.333334
v 0.833334 0.500000 0.333334
v 0.833334 0.666668 0.333334
v 0.833334 0.833334 0.333334
v 1.000000 0.166668 0.333334
v 1.000000 0.333334 0.333334
v 1.000000 0.500000 0.333334
v 1.000000 0.666668 0.333334
v 0.500000 0.666668 0.833334
v 0.500000 0.833334 0.833334
v 0.666666 0.666668 0.833334
v 0.666666 0.833334 0.833334
v 0.000000 0.166668 0.666666
v 0.000000 0.333334 0.666666
v 0.166666 0.166668 0.666666
v 0.166666 0.333334 0.666666
v 0.333334 0.000000 0.666666
v 0.333334 0.166668 0.666666
v 0.333334 0.333334 0.666666
v 0.333334 0.500000 0.666666
v 0.500000 0.000000 0.666666
v 0.500000 0.166668 0.666666
v 0.500000 0.333334 0.666666
v 0.500000 0.500000 0.666666
v 0.500000 0.666668 0.666666
v 0.666666 0.166668 0.666666
v 0.666666 0.333334 0.666666
v 0.666666 0.500000 0.666666
v 0.666666 0.666668 0.666666
v 0.833334 0.166668 0.666666
v 1.000000 0.166668 0.666666
v 1.000000 0.333334 0.666666
v 0.000000 0.666668 0.500000
v 0.000000 0.833334 0.500000
v 0.166666 0.666668 0.500000
v 0.166666 0.833334 0.500000
v 0.333334 0.666668 0.500000
v 0.333334 0.833334 0.500000
v 0.500000 0.666668 0.500000
v 0.500000 0.833334 0.500000
v 0.833334 0.000000 0.500000
v 0.833334 0.166668 0.500000
v 1.000000 0.000000 0.500000
v 1.000000 0.166668 0.500000
v 0.000000 0.500000 0.333334
v 0.000000 0.666668 0.333334
v 0.166666 0.333334 0.333334
v 0.166666 0.500000 0.333334
v 0.333334 0.000000 0.333334
v 0.333334 0.166668 0.333334
v 0.500000 0.000000 0.333334
v 0.500000 0.166668 0.333334
v 0.500000 0.333334 0.333334
v 0.500000 0.666668 0.333334
v 0.000000 0.166668 0.166666
v 0.000000 0.333334 0.166666
v 0.166666 0.166668 0.166666
v 0.333334 0.166668 0.166666
v 0.500000 0.333334 0.166666
v 0.500000 0.666668 0.166666
v 0.666666 0.166668 0.166666
v 0.666666 0.333334 0.166666
v 0.666666 0.500000 0.166666
v 0.666666 0.666668 0.166666
v 0.666666 0.833334 0.166666
v 0.833334 0.166668 0.166666
v 0.833334 0.333334 0.166666
v 0.833334 0.500000 0.166666
v 0.833334 0.666668 0.166666
v 0.833334 0.833334 0.166666
v 1.000000 0.166668 0.166666
v 1.000000 0.333334 0.166666
v 1.000000 0.500000 0.166666
v 1.000000 0.666668 0.166666
v 0.166666 0.000000 0.000000
v 0.166666 0.166668 0.000000
v 0.333334 0.000000 0.000000
v 0.333334 0.166668 0.000000
v 0.666666 0.000000 0.000000
v 0.666666 0.166668 0.000000
v 0.666666 0.500000 0.000000
v 0.833334 0.000000 0.000000
v 0.833334 0.166668 0.000000
v 0.833334 0.500000 0.000000
v 0.166666 0.000000 1.000000
v 0.333334 0.000000 1.000000
v 0.666666 0.000000 1.000000
v 0.833334 0.000000 1.000000
v 0.333334 0.000000 0.833334
v 0.500000 0.000000 0.833334
v 0.333334 0.000000 0.666666
v 0.500000 0.000000 0.666666
v 0.833334 0.000000 0.666666
v 1.000000 0.000000 0.666666
v 0.333334 0.000000 0.500000
v 0.500000 0.000000 0.500000
v 0.833334 0.000000 0.500000
v 1.000000 0.000000 0.500000
v 0.333334 0.000000 0.333334
v 0.500000 0.000000 0.333334
v 0.166666 0.000000 0.000000
v 0.333334 0.000000 0.000000
v 0.666666 0.000000 0.000000
v 0.833334 0.000000 0.000000
v 0.500000 0.166668 1.000000
v 0.666666 0.166668 1.000000
v 0.000000 0.166668 0.833334
v 0.166666 0.166668 0.833334
v 0.500000 0.166668 0.833334
v 0.666666 0.166668 0.833334
v 0.833334 0.166668 0.833334
v 1.000000 0.166668 0.833334
v 0.000000 0.166668 0.666666
v 0.166666 0.166668 0.666666
v 0.333334 0.166668 0.666666
v 0.500000 0.166668 0.666666
v 0.666666 0.166668 0.666666
v 0.833334 0.166668 0.666666
v 1.000000 0.166668 0.666666
v 0.333334 0.166668 0.500000
v 0.500000 0.166668 0.500000
v 0.000000 0.166668 0.333334
v 0.166666 0.166668 0.333334
v 0.333334 0.166668 0.333334
v 0.500000 0.166668 0.333334
v 0.666666 0.166668 0.333334
v 0.833334 0.166668 0.333334
v 1.000000 0.166668 0.333334
v 0.000000 0.166668 0.166666
v 0.166666 0.166668 0.166666
v 0.333334 0.166668 0.166666
v 0.666666 0.166668 0.166666
v 0.833334 0.166668 0.166666
v 1.000000 0.166668 0.166666
v 0.333334 0.333334 1.000000
v 0.500000 0.333334 1.000000
v 0.333334 0.333334 0.833334
v 0.500000 0.333334 0.833334
v 0.166666 0.333334 0.666666
v 0.333334 0.333334 0.666666
v 0.166666 0.333334 0.500000
v 0.333334 0.333334 0.500000
v 0.166666 0.500000 1.000000
v 0.333334 0.500000 1.000000
v 0.500000 0.500000 1.000000
v 0.666666 0.500000 1.000000
v 0.166666 0.500000 0.833334
v 0.333334 0.500000 0.833334
v 0.500000 0.500000 0.833334
v 0.666666 0.500000 0.833334
v 0.000000 0.500000 0.666666
v 0.166666 0.500000 0.666666
v 0.333334 0.500000 0.666666
v 0.500000 0.500000 0.666666
v 0.333334 0.500000 0.500000
v 0.500000 0.500000 0.500000
v 0.000000 0.500000 0.333334
v 0.166666 0.500000 0.333334
v 0.833334 0.500000 0.333334
v 1.000000 0.500000 0.333334
v 0.833334 0.500000 0.166666
v 1.000000 0.500000 0.166666
v 0.166666 0.166668 1.000000
v 0.333334 0.166668 1.000000
v 0.666666 0.166668 1.000000
v 0.833334 0.166668 1.000000
v 0.166666 0.166668 0.833334
v 0.333334 0.166668 0.833334
v 0.666666 0.166668 0.833334
v 0.833334 0.166668 0.833334
v 0.166666 0.166668 0.666666
v 0.333334 0.166668 0.666666
v 0.666666 0.166668 0.666666
v 0.833334 0.166668 0.666666
v 1.000000 0.166668 0.666666
v 0.166666 0.166668 0.500000
v 0.333334 0.166668 0.500000
v 0.666666 0.166668 0.500000
v 0.833334 0.166668 0.500000
v 1.000000 0.166668 0.500000
v 0.166666 0.166668 0.166666
v 0.333334 0.166668 0.166666
v 0.166666 0.166668 0.000000
v 0.333334 0.166668 0.000000
v 0.500000 0.333334 1.000000
v 0.666666 0.333334 1.000000
v 0.000000 0.333334 0.833334
v 0.166666 0.333334 0.833334
v 0.500000 0.333334 0.833334
v 0.666666 0.333334 0.833334
v 1.000000 0.333334 0.833334
v 0.000000 0.333334 0.666666
v 0.166666 0.333334 0.666666
v 0.333334 0.333334 0.666666
v 0.500000 0.333334 0.666666
v 0.666666 0.333334 0.666666
v 1.000000 0.333334 0.666666
v 0.333334 0.333334 0.500000
v 0.500000 0.333334 0.500000
v 0.000000 0.333334 0.333334
v 0.166666 0.333334 0.333334
v 0.500000 0.333334 0.333334
v 0.833334 0.333334 0.333334
v 1.000000 0.333334 0.333334
v 0.000000 0.333334 0.166666
v 0.500000 0.333334 0.166666
v 0.833334 0.333334 0.166666
v 1.000000 0.333334 0.166666
v 0.333334 0.500000 1.000000
v 0.500000 0.500000 1.000000
v 0.333334 0.500000 0.666666
v 0.500000 0.500000 0.666666
v 0.666666 0.500000 0.666666
v 0.500000 0.500000 0.500000
v 0.666666 0.500000 0.500000
v 0.666666 0.500000 0.166666
v 0.833334 0.500000 0.166666
v 0.666666 0.500000 0.000000
v 0.833334 0.500000 0.000000
v 0.166666 0.666668 1.000000
v 0.333334 0.666668 1.000000
v 0.500000 0.666668 0.833334
v 0.666666 0.666668 0.833334
v 0.166666 0.666668 0.666666
v 0.333334 0.666668 0.666666
v 0.500000 0.666668 0.666666
v 0.666666 0.666668 0.666666
v 0.000000 0.666668 0.500000
v 0.166666 0.666668 0.500000
v 0.333334 0.666668 0.500000
v 0.500000 0.666668 0.500000
v 0.833334 0.666668 0.500000
v 0.000000 0.666668 0.333334
v 0.500000 0.666668 0.333334
v 0.666666 0.666668 0.333334
v 0.833334 0.666668 0.333334
v 1.000000 0.666668 0.333334
v 0.500000 0.666668 0.166666
v 0.666666 0.666668 0.166666
v 0.833334 0.666668 0.166666
v 1.000000 0.666668 0.166666
v 0.500000 0.833334 1.000000
v 0.666666 0.833334 1.000000
v 0.500000 0.833334 0.833334
v 0.666666 0.833334 0.833334
v 0.000000 0.833334 0.666666
v 0.166666 0.833334 0.666666
v 0.333334 0.833334 0.666666
v 0.500000 0.833334 0.666666
v 0.000000 0.833334 0.500000
v 0.166666 0.833334 0.500000
v 0.333334 0.833334 0.500000
v 0.500000 0.833334 0.500000
v 0.666666 0.833334 0.333334
v 0.833334 0.833334 0.333334
v 0.666666 0.833334 0.166666
v 0.833334 0.833334 0.166666
vn -1.0000 -0.0000 -0.0000
vn 1.0000 -0.0000 -0.0000
vn -0.0000 -0.0000 1.0000
vn -0.0000 -0.0000 -1.0000
vn -0.0000 -1.0000 -0.0000
vn -0.0000 1.0000 -0.0000
vt 0.345703 0.500000
vt 0.349609 0.500000
s 1
usemtl palette.013
f 5/1/1 2/1/1 1/1/1
f 6/1/1 2/1/1 5/1/1
f 7/1/1 4/1/1 3/1/1
f 8/1/1 4/1/1 7/1/1
f 11/2/1 10/2/1 9/2/1
f 12/2/1 10/2/1 11/2/1
f 13/2/1 11/2/1 9/2/1
f 14/2/1 11/2/1 13/2/1
f 17/1/1 16/1/1 15/1/1
f 18/1/1 16/1/1 17/1/1
f 19/1/1 16/1/1 18/1/1
f 20/1/1 16/1/1 19/1/1
f 21/1/1 16/1/1 20/1/1
f 22/1/1 16/1/1 21/1/1
f 23/1/1 16/1/1 22/1/1
f 26/2/1 21/2/1 20/2/1
f 27/2/1 21/2/1 26/2/1
f 29/2/1 25/2/1 24/2/1
f 29/2/1 26/2/1 25/2/1
f 29/2/1 27/2/1 26/2/1
f 30/2/1 27/2/1 29/2/1
f 31/2/1 27/2/1 30/2/1
f 32/2/1 29/2/1 28/2/1
f 32/2/1 30/2/1 29/2/1
f 33/2/1 30/2/1 32/2/1
f 38/2/1 35/2/1 34/2/1
f 39/2/1 35/2/1 38/2/1
f 40/2/1 37/2/1 36/2/1
f 41/2/1 37/2/1 40/2/1
f 44/2/1 43/2/1 42/2/1
f 45/2/1 43/2/1 44/2/1
f 48/2/1 47/2/1 46/2/1
f 49/2/1 47/2/1 48/2/1
f 55/2/1 51/2/1 50/2/1
f 56/2/1 51/2/1 55/2/1
f 57/2/1 55/2/1 54/2/1
f 58/2/1 55/2/1 57/2/1
f 59/2/1 53/2/1 52/2/1
f 60/2/1 53/2/1 59/2/1
f 61/2/1 57/2/1 54/2/1
f 62/2/1 57/2/1 61/2/1
f 65/1/1 64/1/1 63/1/1
f 66/1/1 64/1/1 65/1/1
f 67/1/1 64/1/1 66/1/1
f 68/1/1 64/1/1 67/1/1
f 69/1/1 64/1/1 68/1/1
f 70/1/1 64/1/1 69/1/1
f 71/2/1 70/2/1 69/2/1
f 72/2/1 70/2/1 71/2/1
f 73/2/1 70/2/1 72/2/1
f 76/2/1 75/2/1 74/2/1
f 77/2/1 75/2/1 76/2/1
f 78/2/2 79/2/2 80/2/2
f 80/2/2 79/2/2 81/2/2
f 82/1/2 83/1/2 88/1/2
f 88/1/2 83/1/2 89/1/2
f 84/1/2 85/1/2 90/1/2
f 90/1/2 85/1/2 91/1/2
f 86/1/2 87/1/2 92/1/2
f 92/1/2 87/1/2 93/1/2
f 93/1/2 87/1/2 94/1/2
f 95/2/2 96/2/2 98/2/2
f 98/2/2 96/2/2 99/2/2
f 97/2/2 98/2/2 100/2/2
f 100/2/2 98/2/2 101/2/2
f 102/2/2 103/2/2 106/2/2
f 106/2/2 103/2/2 107/2/2
f 104/2/2 105/2/2 108/2/2
f 108/2/2 105/2/2 109/2/2
f 110/2/2 111/2/2 112/2/2
f 112/2/2 111/2/2 113/2/2
f 114/2/2 115/2/2 116/2/2
f 116/2/2 115/2/2 117/2/2
f 116/2/2 117/2/2 118/2/2
f 118/2/2 117/2/2 119/2/2
f 120/2/2 121/2/2 124/2/2
f 124/2/2 121/2/2 125/2/2
f 122/2/2 123/2/2 126/2/2
f 125/2/2 126/2/2 128/2/2
f 126/2/2 123/2/2 129/2/2
f 128/2/2 126/2/2 129/2/2
f 129/2/2 123/2/2 130/2/2
f 127/2/2 128/2/2 131/2/2
f 128/2/2 129/2/2 131/2/2
f 131/2/2 129/2/2 132/2/2
f 127/2/2 131/2/2 133/2/2
f 133/2/2 131/2/2 134/2/2
f 135/1/2 136/1/2 139/1/2
f 139/1/2 136/1/2 140/1/2
f 140/1/2 136/1/2 141/1/2
f 137/1/2 138/1/2 142/1/2
f 142/1/2 138/1/2 143/1/2
f 143/1/2 138/1/2 144/1/2
f 144/1/2 138/1/2 145/1/2
f 142/2/2 143/2/2 146/2/2
f 144/2/2 145/2/2 147/2/2
f 142/2/2 146/2/2 148/2/2
f 146/2/2 147/2/2 148/2/2
f 147/2/2 145/2/2 149/2/2
f 148/2/2 147/2/2 149/2/2
f 149/2/2 145/2/2 150/2/2
f 142/2/2 148/2/2 151/2/2
f 151/2/2 148/2/2 152/2/2
f 152/2/2 153/2/2 154/2/2
f 154/2/2 153/2/2 155/2/2
f 156/2/2 157/2/2 159/2/2
f 159/2/2 157/2/2 160/2/2
f 158/1/2 159/1/2 163/1/2
f 163/1/2 159/1/2 164/1/2
f 161/1/2 162/1/2 165/1/2
f 165/1/2 162/1/2 166/1/2
f 167/2/2 168/2/2 169/2/2
f 169/2/2 168/2/2 170/2/2
f 175/1/3 172/1/3 171/1/3
f 176/1/3 172/1/3 175/1/3
f 178/2/3 174/2/3 173/2/3
f 179/2/3 174/2/3 178/2/3
f 181/2/3 178/2/3 177/2/3
f 182/2/3 178/2/3 181/2/3
f 185/2/3 181/2/3 180/2/3
f 186/2/3 181/2/3 185/2/3
f 187/2/3 183/2/3 182/2/3
f 188/2/3 183/2/3 187/2/3
f 189/1/3 185/1/3 184/1/3
f 190/1/3 185/1/3 189/1/3
f 193/1/3 192/1/3 191/1/3
f 194/1/3 192/1/3 193/1/3
f 197/1/3 194/1/3 193/1/3
f 198/2/3 195/2/3 194/2/3
f 198/1/3 194/1/3 197/1/3
f 199/2/3 195/2/3 198/2/3
f 200/2/3 197/2/3 196/2/3
f 201/1/3 198/1/3 197/1/3
f 201/2/3 197/2/3 200/2/3
f 202/1/3 198/1/3 201/1/3
f 205/2/3 203/2/3 202/2/3
f 206/2/3 203/2/3 205/2/3
f 207/1/3 205/1/3 204/1/3
f 208/1/3 205/1/3 207/1/3
f 209/1/3 205/1/3 208/1/3
f 212/2/3 211/2/3 210/2/3
f 213/2/3 211/2/3 212/2/3
f 214/2/3 211/2/3 213/2/3
f 218/2/3 216/2/3 215/2/3
f 218/2/3 217/2/3 216/2/3
f 219/2/3 217/2/3 218/2/3
f 220/2/3 217/2/3 219/2/3
f 223/2/3 222/2/3 221/2/3
f 224/2/3 222/2/3 223/2/3
f 228/2/3 226/2/3 225/2/3
f 229/2/3 226/2/3 228/2/3
f 231/2/3 228/2/3 227/2/3
f 232/2/3 228/2/3 231/2/3
f 233/2/3 230/2/3 229/2/3
f 234/2/3 230/2/3 233/2/3
f 237/2/3 235/2/3 234/2/3
f 238/2/3 237/2/3 236/2/3
f 239/2/3 235/2/3 237/2/3
f 239/2/3 237/2/3 238/2/3
f 242/1/3 241/1/3 240/1/3
f 243/1/3 241/1/3 242/1/3
f 249/2/3 245/2/3 244/2/3
f 250/2/3 245/2/3 249/2/3
f 251/1/3 247/1/3 246/1/3
f 252/1/3 247/1/3 251/1/3
f 253/2/3 249/2/3 248/2/3
f 254/2/3 249/2/3 253/2/3
f 255/2/4 256/2/4 257/2/4
f 257/2/4 256/2/4 258/2/4
f 259/1/4 260/1/4 261/1/4
f 261/1/4 260/1/4 262/1/4
f 261/1/4 262/1/4 264/1/4
f 264/1/4 262/1/4 265/1/4
f 263/2/4 264/2/4 267/2/4
f 267/2/4 264/2/4 268/2/4
f 265/2/4 266/2/4 269/2/4
f 269/2/4 266/2/4 270/2/4
f 270/2/4 271/2/4 274/2/4
f 274/2/4 271/2/4 275/2/4
f 272/1/4 273/1/4 276/1/4
f 276/1/4 273/1/4 277/1/4
f 277/1/4 273/1/4 278/1/4
f 279/2/4 280/2/4 281/2/4
f 281/2/4 280/2/4 282/2/4
f 283/2/4 284/2/4 285/2/4
f 285/2/4 284/2/4 286/2/4
f 287/2/4 288/2/4 289/2/4
f 289/2/4 288/2/4 290/2/4
f 291/2/4 292/2/4 294/2/4
f 295/2/4 296/2/4 297/2/4
f 297/2/4 296/2/4 298/2/4
f 293/2/4 294/2/4 299/2/4
f 294/2/4 292/2/4 300/2/4
f 299/2/4 294/2/4 300/2/4
f 301/1/4 302/1/4 303/1/4
f 303/1/4 302/1/4 304/1/4
f 304/1/4 302/1/4 305/1/4
f 304/1/4 305/1/4 307/1/4
f 305/2/4 306/2/4 308/2/4
f 307/1/4 305/1/4 308/1/4
f 308/2/4 306/2/4 309/2/4
f 309/2/4 306/2/4 310/2/4
f 310/2/4 311/2/4 314/2/4
f 309/2/4 310/2/4 314/2/4
f 314/2/4 311/2/4 315/2/4
f 315/2/4 311/2/4 316/2/4
f 312/1/4 313/1/4 317/1/4
f 317/1/4 313/1/4 318/1/4
f 314/2/4 315/2/4 319/2/4
f 319/2/4 315/2/4 320/2/4
f 321/1/4 322/1/4 323/1/4
f 323/1/4 322/1/4 324/1/4
f 325/1/4 326/1/4 328/1/4
f 326/2/4 327/2/4 329/2/4
f 328/1/4 326/1/4 329/1/4
f 329/2/4 327/2/4 330/2/4
f 335/1/5 332/1/5 331/1/5
f 337/1/5 335/1/5 331/1/5
f 337/2/5 336/2/5 335/2/5
f 338/2/5 336/2/5 337/2/5
f 339/1/5 334/1/5 333/1/5
f 341/1/5 337/1/5 331/1/5
f 343/2/5 340/2/5 339/2/5
f 343/1/5 339/1/5 333/1/5
f 344/2/5 340/2/5 343/2/5
f 345/2/5 342/2/5 341/2/5
f 345/1/5 341/1/5 331/1/5
f 346/2/5 342/2/5 345/2/5
f 347/1/5 345/1/5 331/1/5
f 348/1/5 345/1/5 347/1/5
f 349/1/5 343/1/5 333/1/5
f 350/1/5 343/1/5 349/1/5
f 355/2/5 352/2/5 351/2/5
f 356/2/5 352/2/5 355/2/5
f 359/1/5 354/1/5 353/1/5
f 360/1/5 354/1/5 359/1/5
f 362/1/5 356/1/5 355/1/5
f 363/1/5 356/1/5 362/1/5
f 364/1/5 358/1/5 357/1/5
f 365/1/5 358/1/5 364/1/5
f 366/2/5 363/2/5 362/2/5
f 366/2/5 362/2/5 361/2/5
f 367/2/5 363/2/5 366/2/5
f 371/2/5 363/2/5 367/2/5
f 372/2/5 363/2/5 371/2/5
f 375/1/5 369/1/5 368/1/5
f 376/1/5 369/1/5 375/1/5
f 377/1/5 371/1/5 370/1/5
f 377/1/5 372/1/5 371/1/5
f 378/1/5 372/1/5 377/1/5
f 379/1/5 374/1/5 373/1/5
f 380/1/5 374/1/5 379/1/5
f 383/2/5 382/2/5 381/2/5
f 384/2/5 382/2/5 383/2/5
f 387/2/5 386/2/5 385/2/5
f 388/2/5 386/2/5 387/2/5
f 393/2/5 390/2/5 389/2/5
f 394/2/5 390/2/5 393/2/5
f 395/2/5 392/2/5 391/2/5
f 396/2/5 392/2/5 395/2/5
f 401/2/5 400/2/5 399/2/5
f 402/2/5 400/2/5 401/2/5
f 403/2/5 398/2/5 397/2/5
f 404/2/5 398/2/5 403/2/5
f 407/2/5 406/2/5 405/2/5
f 408/2/5 406/2/5 407/2/5
f 409/1/6 410/1/6 413/1/6
f 413/1/6 410/1/6 414/1/6
f 411/1/6 412/1/6 415/1/6
f 415/1/6 412/1/6 416/1/6
f 417/1/6 418/1/6 422/1/6
f 422/1/6 418/1/6 423/1/6
f 419/1/6 420/1/6 424/1/6
f 420/2/6 421/2/6 425/2/6
f 424/1/6 420/1/6 425/1/6
f 425/2/6 421/2/6 426/2/6
f 427/1/6 428/1/6 429/1/6
f 429/1/6 428/1/6 430/1/6
f 431/2/6 432/2/6 435/2/6
f 435/2/6 432/2/6 436/2/6
f 433/1/6 434/1/6 438/1/6
f 438/1/6 434/1/6 439/1/6
f 436/1/6 437/1/6 442/1/6
f 442/1/6 437/1/6 443/1/6
f 440/2/6 441/2/6 444/2/6
f 444/2/6 441/2/6 445/2/6
f 447/1/6 448/1/6 451/1/6
f 446/1/6 447/1/6 451/1/6
f 451/1/6 448/1/6 452/1/6
f 449/1/6 450/1/6 453/1/6
f 453/1/6 450/1/6 454/1/6
f 455/2/6 456/2/6 457/2/6
f 457/2/6 456/2/6 458/2/6
f 458/2/6 459/2/6 460/2/6
f 460/2/6 459/2/6 461/2/6
f 462/2/6 463/2/6 464/2/6
f 464/2/6 463/2/6 465/2/6
f 466/2/6 467/2/6 470/2/6
f 470/2/6 467/2/6 471/2/6
f 468/2/6 469/2/6 472/2/6
f 472/2/6 469/2/6 473/2/6
f 470/2/6 471/2/6 475/2/6
f 475/2/6 471/2/6 476/2/6
f 476/2/6 477/2/6 479/2/6
f 477/2/6 478/2/6 479/2/6
f 475/2/6 476/2/6 479/2/6
f 474/2/6 475/2/6 479/2/6
f 479/2/6 478/2/6 480/2/6
f 480/2/6 478/2/6 481/2/6
f 481/2/6 478/2/6 482/2/6
f 480/2/6 481/2/6 484/2/6
f 484/2/6 481/2/6 485/2/6
f 482/2/6 483/2/6 486/2/6
f 486/2/6 483/2/6 487/2/6
f 488/2/6 489/2/6 490/2/6
f 490/2/6 489/2/6 491/2/6
f 492/2/6 493/2/6 496/2/6
f 496/2/6 493/2/6 497/2/6
f 494/2/6 495/2/6 498/2/6
f 498/2/6 495/2/6 499/2/6
f 500/2/6 501/2/6 502/2/6
f 502/2/6 501/2/6 503/2/6
